<svg xmlns="http://www.w3.org/2000/svg" xml:space="preserve" width="1500" height="1500" data-id="lg_jHKbCnlHZNiXzDFVDZ" data-version="1"><path fill="#f6efd1" stroke="transparent" d="M0 0h1500v1500H0z"/><g data-padding="20"><g transform="translate(-576.165 -590.36)scale(1.72788)"><rect width="427.28" height="79.1" x="154.004" y="336.307" fill="none" rx="0" ry="0" transform="translate(334.64 408.23)"/><path fill="#672109" d="m1044.786 733.314-4.183 49.077v.302l4.21 32.697-55.265 16.809-54.999-16.81 4.486-32.683.025-.151-.025-.164-4.448-49.077 54.545 16.682.416.126.416-.126Zm1.588-1.966-56.839 17.288-56.56-17.288 4.661 51.156-4.662 33.907 56.561 17.287 56.84-17.3-4.348-33.894Z"/><path fill="#672109" d="m956.927 757.267-18.9-5.482-1.512-15.498 19.278 5.96Zm30.605-4.436h-.126l-30.026-8.845a.428.428 0 1 1 .24-.82l30.024 8.847a.428.428 0 0 1-.126.832m.278 4.522h-.126l-29.887-8.92a.428.428 0 0 1 .252-.807l29.887 8.883a.428.428 0 0 1-.126.844m0 4.536h-.126l-29.736-9.047a.428.428 0 1 1 .24-.806l29.736 9.034a.428.428 0 0 1-.114.832m.026 4.523h-.126l-29.307-8.618a.428.428 0 1 1 .24-.82l29.32 8.619a.42.42 0 0 1 .29.517.43.43 0 0 1-.417.315m.29 5.115-.126-.025-49.442-14.565a.428.428 0 1 1 .24-.82l49.441 14.579a.428.428 0 0 1-.126.832m0 4.536-.126-.026-49.014-14.414a.428.428 0 1 1 .227-.82l49.026 14.428a.428.428 0 0 1-.126.832m-18.698-1.134-.126-.026-30.026-8.82a.433.433 0 1 1 .24-.831l30.025 8.845a.427.427 0 0 1 .29.53.43.43 0 0 1-.403.302m-.126 4.422-.126-.012-29.61-8.732a.428.428 0 0 1 .227-.82l29.635 8.733a.428.428 0 0 1-.126.83m.14 4.524-.127-.012-29.484-8.732a.428.428 0 0 1 .252-.82l29.471 8.733a.433.433 0 0 1 .29.529.43.43 0 0 1-.416.302m.013 4.687-.126-.025-28.905-8.58a.428.428 0 1 1 .24-.82l28.904 8.594a.427.427 0 0 1 .29.529.43.43 0 0 1-.416.302m18.421 9.589h-.126l-28.186-8.33a.428.428 0 0 1 .252-.818l28.186 8.316a.428.428 0 0 1-.126.845m.013 4.523h-.126l-28.476-8.48a.428.428 0 0 1 .252-.82l28.476 8.468a.44.44 0 0 1 .29.53.38.38 0 0 1-.416.315m-.013 4.536h-.126l-28.879-9.06a.428.428 0 1 1 .252-.818l28.892 9.046a.428.428 0 0 1-.126.832m-.013 4.536h-.126l-29.32-8.908a.41.41 0 0 1-.277-.53.416.416 0 0 1 .53-.277l29.32 8.896a.428.428 0 0 1-.127.832m0 4.51h-.126l-29.597-8.757a.428.428 0 1 1 .252-.82l29.597 8.758a.42.42 0 0 1 .29.517.43.43 0 0 1-.416.315m-.013 4.523h-.126l-49.669-14.616a.428.428 0 0 1 .24-.82l49.694 14.617c.227.063.353.29.29.517a.43.43 0 0 1-.416.315m0 4.536h-.126l-50.475-14.97a.428.428 0 1 1 .252-.805l50.488 14.93a.432.432 0 0 1-.126.845m.592-30.996-17.64-5.103v-14.742l17.64 5.103Zm-49.77 7.648 17.716 5.103 1.423-18.56-16.732-4.964Zm83.21-44.805 19.278-5.52 1.134-15.46-19.278 5.96Zm-30.605-4.423a.428.428 0 0 1-.126-.82l30.051-8.844a.428.428 0 1 1 .24.819l-30.026 8.832Zm-.277 4.523a.38.38 0 0 1-.416-.302.43.43 0 0 1 .29-.53l29.887-8.883a.428.428 0 1 1 .252.807l-29.9 8.908Zm0 4.549a.428.428 0 0 1-.126-.832l29.736-9.021c.24-.076.48.05.542.277a.43.43 0 0 1-.278.53l-29.748 9.046Zm0 4.523a.38.38 0 0 1-.416-.302.43.43 0 0 1 .29-.53l29.32-8.605a.427.427 0 0 1 .24.819l-29.32 8.605Zm-.29 5.116a.428.428 0 0 1-.126-.832l49.468-14.566a.428.428 0 1 1 .24.82l-49.456 14.552Zm0 4.549a.428.428 0 0 1-.126-.832l49.04-14.427a.428.428 0 0 1 .24.819l-49.028 14.414Zm.29 4.233a.43.43 0 0 1-.416-.303.43.43 0 0 1 .29-.53l30.038-8.831c.214-.076.454.063.53.29s-.064.453-.29.516l-30.039 8.845Zm.126 4.435a.428.428 0 0 1-.126-.832l29.622-8.731a.428.428 0 1 1 .252.819l-29.635 8.719Zm-.164 4.536a.428.428 0 0 1-.126-.832l29.484-8.731a.428.428 0 1 1 .252.819l-29.484 8.73Zm.013 4.675a.428.428 0 0 1-.126-.832l28.93-8.593a.428.428 0 0 1 .24.819l-28.93 8.593Zm.025 4.208a.428.428 0 0 1-.126-.832l46.33-13.696a.428.428 0 1 1 .252.82l-46.343 13.695Zm0 4.549a.428.428 0 0 1-.126-.82l46.897-14.15a.428.428 0 1 1 .252.82l-46.91 14.15Zm0 4.536a.428.428 0 0 1-.126-.832l47.325-14.414a.427.427 0 0 1 .24.819l-47.326 14.414Zm0 4.523a.428.428 0 0 1-.126-.82l48.17-14.703a.428.428 0 0 1 .252.806l-48.17 14.717Zm.012 4.549a.428.428 0 0 1-.125-.82l48.888-14.703a.415.415 0 0 1 .53.277.43.43 0 0 1-.29.53l-48.889 14.716Zm-.012 4.523a.428.428 0 0 1-.126-.832l49.694-14.603a.44.44 0 0 1 .53.29.43.43 0 0 1-.29.529l-49.695 14.616Zm0 4.536a.38.38 0 0 1-.416-.29.43.43 0 0 1 .29-.53l50.488-14.943a.417.417 0 0 1 .53.29.416.416 0 0 1-.278.53l-50.5 14.93Zm30.592-40.622 17.01-5.103 1.424-15.032-17.01 5.103Zm-488.06-4.928h-8.08l9.56-44.8h32.93l-1.42 6.74h-24.9l-2.44 11.49h16.95l-1.48 6.74h-16.95Zm50.89 0h-7.64l10.02-47.3h7.63Zm12.65 0h-32.8l1.28-6.23h32.86Zm-7.77-41.08h-11.75l1.35-6.22h11.75Zm46.02 41.08h-7.38l1.28-7.51 3.15-14.7q.58-2.57-.32-4.46t-2.86-2.92-4.65-1.03q-3.66 0-6.23 1.64t-3.08 4.91h-7.51q.51-3.72 2.86-6.42 2.34-2.69 6.06-4.2 3.73-1.51 8.28-1.51 5.2 0 8.89 1.83t5.3 5.2q1.6 3.37.64 7.92Zm-17.78.77q-3.21 0-5.71-1.28-2.5-1.29-3.98-3.53-1.48-2.25-1.48-5.2 0-4.18 2.09-6.81 2.08-2.63 5.65-3.88 3.56-1.25 8.05-1.25h10.85l-1.16 5.52-10.07.06q-3.53 0-5.55 1.51-2.03 1.51-2.03 4.08 0 2.18 1.45 3.4 1.44 1.22 3.82 1.22 3.4 0 6.22-1.93 2.83-1.92 5.07-5.33l-.19 5.59q-2.44 3.98-5.52 5.9-3.08 1.93-7.51 1.93m43.78 0q-3.34 0-6.2-.9-2.85-.9-5.01-2.66-2.15-1.77-3.36-4.27-1.22-2.5-1.22-5.59h7.57q.06 3.47 2.31 5.59t6.16 2.12q3.47 0 5.27-1.35 1.79-1.35 1.79-3.27 0-1.74-1.41-2.8t-3.63-1.79q-2.21-.74-4.68-1.51t-4.69-1.86q-2.21-1.09-3.62-2.89-1.42-1.8-1.42-4.62 0-3.47 1.87-5.97 1.86-2.51 5.26-3.85 3.4-1.35 7.83-1.35 4.24 0 7.61 1.35 3.36 1.34 5.39 3.91 2.02 2.57 2.15 6.42h-7.58q-.32-3.08-2.5-4.52-2.18-1.45-5.33-1.45-3.27 0-5.07 1.35t-1.8 3.34q0 1.73 1.42 2.72 1.41 1 3.62 1.71 2.22.7 4.72 1.44t4.69 1.86q2.18 1.12 3.59 2.99 1.41 1.86 1.41 4.94 0 3.34-1.79 5.77-1.8 2.44-5.17 3.79t-8.18 1.35m52.31-.77h-7.71l4.75-22.08q.71-3.47-.73-5.55-1.45-2.09-4.53-2.09-3.53 0-6.8 2.5-3.28 2.51-6.42 7.9l.45-7.57q3.14-4.69 6.87-7 3.72-2.31 7.95-2.31 4.05 0 6.78 1.7 2.72 1.7 3.88 4.78 1.15 3.08.26 7.19Zm-24.78 0h-7.64l10.02-47.3h7.7Zm61.87-22.91q2.83.89 4.59 3.11 1.77 2.21 1.77 5.42 0 4.56-2.5 7.77-2.51 3.21-6.78 4.91-4.26 1.7-9.46 1.7h-18.04l9.5-44.8h16.69q4.17 0 7.22 1.35 3.05 1.34 4.69 3.72 1.63 2.37 1.63 5.39 0 2.7-1.22 4.97-1.22 2.28-3.3 3.95-2.09 1.67-4.79 2.51m-5.45-15.15h-8.79l-2.57 11.94h8.92q2.57 0 4.53-.87 1.95-.87 3.08-2.44 1.12-1.57 1.12-3.56 0-2.25-1.7-3.66t-4.59-1.41m-12.77 18.68-2.7 12.64h9.63q4.17 0 6.67-1.99 2.51-1.99 2.51-5.13 0-2.51-1.83-4.02-1.83-1.5-5.11-1.5Zm63.28 0h-7.64l.9-4.18q.58-2.82-.61-4.49-1.18-1.67-4.14-1.67-3.59 0-7.09 2.63t-6.71 8.28l.52-7.19q2.24-3.33 4.62-5.61 2.37-2.28 5.07-3.44 2.7-1.15 5.84-1.15 3.66 0 6.26 1.44 2.6 1.45 3.69 4.27 1.09 2.83.19 6.93Zm-27.92 19.38h-7.7l7.57-35.43h7.26l-1.22 7.51Zm50.13 0h-7.64l7.51-35.43h7.7Zm12 0h-32.15l1.34-6.23h32.16Zm-9.62-29.2h-11.75l1.35-6.23h11.74Zm6.86-11.88h-8.4l1.66-7.83h8.41Zm27.67 41.85q-4.75 0-8.38-1.89-3.63-1.9-5.68-5.36-2.05-3.47-2.05-8.15 0-4.56 1.38-8.48 1.38-3.91 3.94-6.87 2.57-2.95 6.29-4.58 3.73-1.64 8.48-1.64 5.45 0 9.14 2.28t5.2 6.42.48 9.78h-28.69l1.22-5.52h20.09q.07-3.08-1.92-4.94t-5.84-1.86q-4.3 0-6.94 2.18-2.63 2.19-3.82 5.62-1.18 3.43-1.18 7.22 0 2.89 1.06 5.01 1.06 2.11 3.05 3.3t4.62 1.19q4.3 0 6.8-1.86t3.34-4.75h7.7q-1.16 3.91-3.5 6.83t-6 4.5q-3.66 1.57-8.79 1.57m39.34-.77h-7.57l8.54-40.31q1.15-5.2 4.55-7.86 3.4-2.67 8.86-2.67h10.98l-1.35 6.23h-8.99q-2.5 0-4.2 1-1.7.99-2.41 4.2Zm16.5-29.2h-25.8l1.28-6.23h25.87Zm-2.7 29.2h-32.28l1.28-6.23h32.35Z"/><rect width="442.235" height="77.97" x="146.527" y="336.872" fill="none" rx="0" ry="0" transform="translate(357.49 380.88)"/></g><path fill="transparent" stroke="transparent" stroke-width="1.792" d="M250 646.057h1000v207.886H250z"/></g></svg>