<svg id="svg" version="1.1" xmlns="http://www.w3.org/2000/svg" xmlns:xlink="http://www.w3.org/1999/xlink" width="400" height="288.631090487239" viewBox="0, 0, 400,288.631090487239"><g id="svgg"><path id="path0" d="M196.195 17.082 C 189.461 17.412,183.438 18.498,177.541 20.444 C 176.009 20.949,174.046 21.486,173.179 21.638 C 166.593 22.787,160.814 25.875,155.157 31.267 C 153.806 32.555,152.287 33.779,151.074 34.558 C 133.660 45.736,127.336 70.058,136.893 89.095 C 138.031 91.363,138.538 93.862,138.155 95.319 C 134.762 108.213,140.683 124.005,150.053 127.053 L 151.652 127.574 150.423 128.398 C 147.602 130.291,144.748 133.636,143.253 136.805 L 142.505 138.389 141.041 138.908 C 122.209 145.578,118.189 165.131,133.099 177.541 C 140.322 183.553,149.538 186.654,183.295 194.428 C 219.037 202.659,230.320 206.382,236.986 212.144 C 238.595 213.534,238.091 213.704,241.949 210.476 C 257.074 197.820,269.140 184.186,274.135 174.107 C 280.320 161.628,277.918 151.367,267.403 145.350 C 266.408 144.781,266.390 144.756,266.557 144.172 C 267.008 142.601,266.548 140.619,265.439 139.359 L 264.705 138.525 265.150 137.209 C 267.442 130.433,266.143 122.175,261.970 116.999 C 261.205 116.050,261.184 116.259,262.188 114.822 C 264.080 112.116,265.033 109.326,265.526 105.058 C 265.910 101.729,266.177 100.763,267.496 97.934 C 271.010 90.401,271.732 83.230,269.413 78.892 C 269.166 78.429,268.702 77.299,268.382 76.381 C 268.062 75.462,267.590 74.295,267.333 73.787 L 266.866 72.864 267.858 72.024 C 278.707 62.832,282.099 53.384,277.767 44.425 C 272.036 32.571,251.548 25.182,236.192 29.430 C 235.908 29.508,235.393 29.146,234.057 27.928 C 225.763 20.363,211.659 16.323,196.195 17.082 M207.600 19.040 C 218.577 20.248,227.630 23.999,233.755 29.879 L 235.274 31.338 237.127 30.888 C 246.669 28.570,257.219 30.187,266.396 35.374 C 280.750 43.488,281.760 57.415,268.832 68.980 C 267.587 70.094,265.170 72.050,264.740 72.292 C 264.718 72.304,265.062 73.020,265.504 73.883 C 265.946 74.746,266.537 76.079,266.817 76.845 C 267.098 77.610,267.612 78.870,267.959 79.645 C 270.004 84.196,269.354 90.000,265.986 97.277 C 264.698 100.060,264.225 101.746,263.934 104.594 C 263.449 109.334,262.326 112.223,259.747 115.373 L 259.128 116.129 260.067 117.229 C 264.731 122.693,266.002 131.482,263.082 138.083 C 262.837 138.637,262.701 139.144,262.780 139.208 C 262.859 139.272,263.246 139.561,263.640 139.849 C 264.987 140.837,265.411 142.732,264.703 144.597 L 264.347 145.532 265.229 145.979 C 275.965 151.419,278.688 161.111,272.847 173.093 C 268.043 182.948,255.450 197.179,240.857 209.245 L 238.465 211.223 237.608 210.506 C 231.139 205.096,219.091 201.048,188.121 193.882 C 148.892 184.804,140.698 182.087,133.550 175.785 C 122.936 166.426,123.059 152.557,133.828 144.564 C 136.399 142.655,139.374 141.135,142.506 140.128 C 143.246 139.890,143.852 139.606,143.852 139.498 C 143.852 138.972,145.827 135.407,146.916 133.968 C 148.633 131.699,152.416 128.653,154.296 128.026 C 154.688 127.896,153.307 126.032,152.818 126.032 C 143.745 126.032,136.350 109.222,139.656 96.111 C 140.222 93.864,139.847 91.348,138.583 88.910 C 128.886 70.211,135.182 46.434,152.761 35.360 C 153.789 34.712,154.984 33.759,155.626 33.073 C 160.173 28.220,166.766 24.512,172.858 23.382 C 174.004 23.169,176.320 22.548,178.005 22.003 C 183.874 20.102,189.030 19.176,196.566 18.671 C 198.533 18.539,205.016 18.756,207.600 19.040 M195.174 21.276 C 186.430 21.975,179.132 23.774,173.064 26.726 L 170.444 28.001 169.668 29.231 C 163.777 38.558,160.301 51.808,160.285 64.996 C 160.277 71.123,160.138 70.627,161.742 70.169 C 165.674 69.044,171.520 68.921,175.216 69.884 C 178.664 70.783,184.903 70.396,188.986 69.029 C 194.692 67.120,197.409 64.631,204.481 54.830 C 211.771 44.730,221.559 36.628,231.143 32.762 L 232.617 32.167 231.065 30.822 C 223.180 23.990,208.864 20.182,195.174 21.276 M165.799 28.486 C 156.806 33.314,149.048 43.736,146.819 53.983 C 145.397 60.525,146.062 72.005,148.509 83.155 C 149.014 85.457,150.650 91.580,150.857 91.940 C 150.905 92.025,151.219 91.686,151.555 91.188 C 153.695 88.009,157.205 86.773,160.243 88.129 C 161.041 88.485,161.125 88.493,161.044 88.208 C 160.993 88.032,160.783 87.304,160.577 86.589 C 155.100 67.606,157.714 44.227,167.057 28.631 C 167.763 27.453,167.730 27.449,165.799 28.486 M243.155 32.423 C 229.186 33.855,216.065 42.746,205.223 58.129 L 204.350 59.368 206.166 58.718 C 211.407 56.843,216.853 55.948,224.223 55.753 L 228.399 55.642 230.756 54.724 C 233.655 53.596,236.211 52.295,238.372 50.850 C 239.415 50.153,240.042 49.835,240.090 49.980 C 240.620 51.583,240.669 52.571,240.294 54.020 C 240.149 54.578,240.063 55.067,240.103 55.107 C 240.432 55.436,247.103 52.383,249.575 50.771 C 251.470 49.536,251.395 49.544,251.238 50.587 C 250.939 52.584,250.031 54.406,248.722 55.638 C 247.764 56.540,247.760 56.533,249.271 56.876 C 251.204 57.316,254.339 57.227,256.207 56.679 C 257.308 56.356,254.709 59.561,252.932 60.716 L 251.851 61.420 253.138 62.068 C 256.265 63.643,260.485 66.904,262.357 69.192 L 263.275 70.315 264.380 69.450 C 275.262 60.927,278.287 51.554,272.627 43.898 C 267.307 36.701,253.576 31.355,243.155 32.423 M147.389 42.985 C 137.472 53.281,134.055 68.269,138.495 81.995 C 139.327 84.567,139.406 84.650,139.722 83.295 C 140.257 81.001,141.922 78.468,143.910 76.925 L 144.619 76.375 144.334 74.243 C 142.514 60.641,143.551 52.232,148.126 43.480 C 148.833 42.128,149.382 41.021,149.346 41.021 C 149.311 41.021,148.430 41.905,147.389 42.985 M102.973 55.398 C 98.508 56.437,94.808 57.334,94.751 57.391 C 94.695 57.448,97.280 61.075,100.496 65.452 C 103.712 69.829,106.347 73.457,106.350 73.514 C 106.354 73.571,104.039 74.146,101.206 74.792 C 98.374 75.438,95.993 76.021,95.917 76.089 C 95.798 76.195,121.207 99.329,121.883 99.730 C 122.152 99.890,122.190 99.962,115.849 88.074 C 113.508 83.684,111.672 80.063,111.771 80.027 C 111.869 79.991,114.200 79.440,116.950 78.804 C 119.701 78.168,122.000 77.598,122.061 77.537 C 122.121 77.477,120.899 74.645,119.345 71.243 C 117.791 67.841,115.356 62.510,113.934 59.397 C 112.511 56.283,111.290 53.684,111.219 53.622 C 111.148 53.559,107.437 54.358,102.973 55.398 M289.843 54.445 C 289.608 54.973,287.149 60.366,284.378 66.429 C 281.606 72.492,279.380 77.493,279.430 77.543 C 279.480 77.593,281.839 78.170,284.673 78.826 C 287.506 79.482,289.845 80.038,289.870 80.063 C 289.894 80.088,287.538 84.567,284.634 90.016 C 281.729 95.466,279.373 99.940,279.398 99.959 C 279.502 100.038,305.612 76.313,305.579 76.170 C 305.559 76.084,303.220 75.478,300.382 74.823 C 297.543 74.168,295.194 73.611,295.161 73.585 C 295.128 73.560,297.747 69.931,300.981 65.522 C 304.215 61.113,306.789 57.444,306.702 57.369 C 306.614 57.293,303.369 56.503,299.490 55.613 C 295.610 54.722,291.949 53.879,291.353 53.738 L 290.270 53.483 289.843 54.445 M166.497 71.845 C 165.010 72.010,161.256 72.843,160.822 73.105 C 160.683 73.190,160.694 73.773,160.861 75.081 C 161.243 78.070,160.943 77.772,163.577 77.776 C 173.462 77.792,180.225 82.605,182.739 91.413 C 184.984 99.278,184.501 114.502,181.827 120.137 C 178.028 128.142,166.955 131.150,159.324 126.251 L 158.237 125.553 157.129 125.802 C 155.737 126.115,155.766 126.073,156.364 126.936 C 163.119 136.684,180.427 134.545,186.075 123.264 C 191.838 111.753,189.726 84.712,182.459 76.965 C 178.713 72.971,172.971 71.130,166.497 71.845 M219.443 73.639 C 219.826 73.679,220.452 73.679,220.835 73.639 C 221.218 73.599,220.905 73.566,220.139 73.566 C 219.374 73.566,219.060 73.599,219.443 73.639 M144.278 80.054 C 142.501 81.982,141.810 84.125,141.810 87.702 C 141.810 90.458,141.799 90.446,142.991 89.033 C 143.804 88.069,145.744 86.520,146.432 86.284 C 146.560 86.240,146.530 85.812,146.341 85.012 C 146.184 84.348,145.851 82.809,145.602 81.592 C 145.056 78.931,145.180 79.075,144.278 80.054 M161.856 80.608 C 161.856 82.321,164.611 91.517,165.851 93.943 C 171.652 105.296,167.479 120.533,158.945 119.158 C 152.575 118.131,147.434 106.483,149.282 97.262 L 149.524 96.056 148.560 93.083 C 148.031 91.448,147.539 89.801,147.468 89.423 C 147.340 88.741,147.334 88.737,146.830 88.998 C 142.077 91.456,139.894 102.775,142.462 111.639 C 145.375 121.689,153.074 126.362,162.034 123.517 C 163.891 122.928,163.854 123.040,161.874 124.011 C 159.819 125.019,159.814 124.954,161.995 125.528 C 165.176 126.366,165.978 126.481,168.631 126.475 C 177.080 126.458,180.718 121.284,181.570 108.073 C 182.761 89.580,177.385 81.060,164.020 80.260 L 161.856 80.131 161.856 80.608 M85.378 95.136 C 80.838 98.970,77.102 102.166,77.076 102.238 C 77.051 102.309,82.173 104.939,88.459 108.081 C 94.744 111.224,99.861 113.864,99.828 113.949 C 99.795 114.034,97.429 116.081,94.571 118.497 C 91.712 120.913,89.353 122.949,89.328 123.022 C 89.284 123.149,133.300 134.975,133.409 134.866 C 133.438 134.837,128.846 131.608,123.204 127.690 C 117.563 123.772,112.215 120.053,111.321 119.425 L 109.695 118.283 114.834 113.944 C 117.661 111.558,120.083 109.522,120.217 109.420 C 120.419 109.267,94.477 88.466,93.767 88.212 C 93.694 88.186,89.919 91.301,85.378 95.136 M303.290 91.656 C 300.888 93.565,294.981 98.244,290.162 102.053 C 285.343 105.862,281.354 109.053,281.298 109.144 C 281.242 109.235,283.585 111.328,286.505 113.796 C 289.426 116.264,291.746 118.343,291.662 118.416 C 291.577 118.490,286.227 122.212,279.772 126.688 C 273.317 131.164,268.059 134.849,268.086 134.877 C 268.176 134.966,312.204 123.162,312.204 123.049 C 312.204 122.988,309.829 120.941,306.926 118.500 C 304.024 116.058,301.644 114.019,301.637 113.968 C 301.631 113.916,306.763 111.303,313.041 108.159 C 319.318 105.015,324.455 102.379,324.455 102.301 C 324.455 102.137,308.193 88.363,307.872 88.256 C 307.753 88.217,305.692 89.747,303.290 91.656 M256.009 91.822 C 256.188 91.868,256.480 91.868,256.659 91.822 C 256.838 91.775,256.691 91.737,256.334 91.737 C 255.977 91.737,255.831 91.775,256.009 91.822 M197.555 93.828 C 197.556 94.543,197.589 94.813,197.630 94.427 C 197.670 94.042,197.669 93.458,197.628 93.128 C 197.587 92.799,197.554 93.114,197.555 93.828 M248.619 95.081 L 248.074 95.684 248.677 95.139 C 249.009 94.839,249.281 94.568,249.281 94.536 C 249.281 94.393,249.128 94.519,248.619 95.081 M156.609 95.191 C 153.101 97.504,153.509 106.980,157.261 110.354 C 158.592 111.550,159.777 111.676,160.868 110.738 L 161.383 110.295 160.641 109.486 C 157.709 106.294,156.777 99.733,158.716 95.932 C 159.031 95.315,159.058 95.140,158.857 95.012 C 158.422 94.737,157.142 94.839,156.609 95.191 M254.432 102.034 C 254.661 102.078,255.037 102.078,255.267 102.034 C 255.497 101.989,255.309 101.953,254.849 101.953 C 254.390 101.953,254.202 101.989,254.432 102.034 M213.828 102.889 C 213.828 102.921,214.100 103.192,214.432 103.492 L 215.035 104.037 214.490 103.434 C 213.981 102.872,213.828 102.745,213.828 102.889 M225.617 105.214 C 225.669 105.266,225.523 105.524,225.292 105.787 C 224.952 106.175,224.987 106.162,225.476 105.719 C 226.177 105.086,226.158 105.120,225.800 105.120 C 225.647 105.120,225.565 105.162,225.617 105.214 M251.462 105.564 C 251.794 105.605,252.336 105.605,252.668 105.564 C 253.000 105.522,252.729 105.489,252.065 105.489 C 251.401 105.489,251.130 105.522,251.462 105.564 M218.979 108.159 C 219.209 108.203,219.585 108.203,219.814 108.159 C 220.044 108.115,219.856 108.078,219.397 108.078 C 218.937 108.078,218.749 108.115,218.979 108.159 M253.550 111.462 C 254.208 112.125,254.787 112.668,254.838 112.668 C 254.890 112.668,254.393 112.125,253.735 111.462 C 253.078 110.798,252.498 110.255,252.447 110.255 C 252.396 110.255,252.892 110.798,253.550 111.462 M218.144 114.472 C 218.425 114.514,218.884 114.514,219.165 114.472 C 219.445 114.429,219.216 114.394,218.654 114.394 C 218.093 114.394,217.863 114.429,218.144 114.472 M233.550 117.216 C 233.552 117.624,233.590 117.769,233.635 117.538 C 233.679 117.308,233.677 116.973,233.631 116.796 C 233.585 116.619,233.548 116.807,233.550 117.216 M245.897 121.155 C 246.230 121.197,246.731 121.196,247.010 121.154 C 247.289 121.111,247.016 121.077,246.404 121.078 C 245.791 121.079,245.563 121.114,245.897 121.155 M155.121 131.046 C 144.736 136.305,142.508 150.221,150.719 158.538 C 156.296 164.186,164.453 167.322,192.131 174.457 C 216.328 180.695,226.086 185.402,231.658 193.522 L 232.283 194.432 230.805 193.203 C 223.464 187.102,213.963 183.410,188.052 176.594 C 164.343 170.356,156.337 167.310,149.920 162.084 C 144.968 158.050,142.007 150.984,142.684 144.815 L 142.854 143.272 142.378 143.386 C 142.117 143.449,140.900 143.992,139.675 144.593 C 123.665 152.446,125.412 169.897,143.051 178.315 C 148.922 181.117,161.518 184.608,186.821 190.446 C 217.218 197.459,229.724 201.410,237.053 206.315 L 238.488 207.276 240.775 205.335 C 250.151 197.379,260.095 186.914,265.524 179.289 C 275.946 164.651,275.224 154.332,263.366 148.485 L 262.138 147.880 261.335 148.325 C 260.555 148.758,260.517 148.822,260.011 150.588 C 257.740 158.500,254.979 162.387,248.398 166.935 C 245.419 168.993,242.493 171.278,242.643 171.429 C 242.680 171.466,244.189 171.051,245.996 170.506 C 247.803 169.961,249.281 169.541,249.281 169.572 C 249.281 171.788,243.966 181.704,239.762 187.332 C 237.978 189.720,238.333 189.686,236.653 187.634 C 233.661 183.981,230.002 180.777,220.925 173.864 C 213.335 168.082,210.182 165.044,206.534 159.997 C 206.122 159.427,206.199 162.044,206.665 164.452 C 206.998 166.171,207.238 166.109,204.530 165.001 C 198.179 162.400,194.585 159.548,191.640 154.770 L 190.819 153.438 190.086 155.002 C 189.683 155.862,189.160 157.255,188.924 158.097 C 188.396 159.981,188.561 160.008,186.645 157.726 C 183.550 154.040,181.350 150.524,180.163 147.365 C 179.672 146.060,179.647 146.085,179.286 148.206 C 179.151 149.002,179.112 150.231,179.184 151.408 C 179.323 153.694,179.421 153.671,177.248 151.865 C 172.465 147.893,170.624 144.773,169.008 137.901 L 168.503 135.755 166.793 135.539 C 163.425 135.114,160.478 133.868,157.895 131.779 C 157.017 131.068,156.275 130.491,156.247 130.495 C 156.218 130.499,155.712 130.747,155.121 131.046 M241.531 140.082 C 241.710 140.128,242.002 140.128,242.181 140.082 C 242.360 140.035,242.213 139.997,241.856 139.997 C 241.499 139.997,241.353 140.035,241.531 140.082 M236.062 157.724 C 236.601 157.762,237.437 157.761,237.918 157.723 C 238.400 157.685,237.958 157.654,236.937 157.655 C 235.916 157.655,235.523 157.686,236.062 157.724 M26.530 217.052 C 24.786 217.522,23.108 218.873,22.303 220.456 C 21.907 221.233,21.675 222.309,20.689 227.935 C 20.322 230.028,19.741 233.327,19.397 235.267 C 16.127 253.724,15.407 257.851,15.407 258.144 C 15.406 258.322,16.287 258.376,19.191 258.376 L 22.977 258.376 23.186 257.216 C 23.751 254.088,25.317 245.214,25.658 243.202 L 26.044 240.928 32.012 240.928 L 37.979 240.928 38.495 238.005 C 38.779 236.397,39.052 234.935,39.101 234.756 C 39.184 234.452,38.816 234.432,33.238 234.432 C 29.964 234.432,27.285 234.397,27.285 234.354 C 27.285 233.631,29.060 224.381,29.257 224.075 C 29.730 223.344,30.232 223.295,37.279 223.295 L 44.092 223.295 44.624 220.278 C 44.916 218.619,45.195 217.158,45.243 217.030 C 45.367 216.698,27.766 216.719,26.530 217.052 M60.510 216.972 C 60.510 217.068,59.964 220.221,59.297 223.979 C 58.629 227.737,57.672 233.151,57.169 236.009 C 56.666 238.868,55.841 243.545,55.336 246.404 C 53.842 254.857,53.915 254.235,54.270 255.451 C 54.613 256.629,55.389 257.549,56.477 258.065 C 57.077 258.350,58.019 258.375,66.467 258.331 L 75.794 258.283 76.310 255.499 C 76.593 253.968,76.830 252.527,76.835 252.297 L 76.845 251.879 69.405 251.879 L 61.966 251.879 62.073 251.369 C 62.268 250.435,63.553 243.237,67.002 223.759 C 67.616 220.288,68.153 217.302,68.195 217.123 C 68.266 216.822,67.992 216.798,64.391 216.798 C 62.096 216.798,60.510 216.869,60.510 216.972 M102.261 217.052 C 100.452 217.540,98.732 218.971,97.994 220.603 C 97.622 221.427,97.356 222.825,94.657 238.144 C 94.144 241.053,93.304 245.814,92.790 248.724 C 91.404 256.561,91.139 258.083,91.138 258.237 C 91.134 258.656,98.739 258.381,98.834 257.958 C 98.975 257.327,100.789 247.167,100.789 247.007 C 100.789 246.930,103.086 246.868,105.893 246.868 C 108.701 246.868,110.998 246.915,110.998 246.972 C 110.998 247.092,109.194 257.087,109.032 257.869 L 108.925 258.383 112.792 258.333 L 116.659 258.283 117.064 255.963 C 117.287 254.687,118.189 249.592,119.069 244.640 C 120.594 236.064,120.988 233.838,122.958 222.645 C 123.425 219.991,123.855 217.589,123.914 217.309 L 124.020 216.798 113.565 216.811 C 105.897 216.820,102.883 216.884,102.261 217.052 M143.087 217.054 C 139.810 217.937,138.788 219.608,137.722 225.829 C 136.335 233.923,136.503 234.200,145.893 239.341 C 153.186 243.334,152.649 242.634,151.846 247.101 C 151.102 251.240,151.141 251.086,150.715 251.513 C 150.370 251.857,150.082 251.879,145.916 251.879 C 140.584 251.879,140.889 252.023,141.236 249.684 C 141.367 248.798,141.519 247.761,141.574 247.378 L 141.673 246.682 137.843 246.682 C 135.737 246.682,134.014 246.724,134.014 246.776 C 134.014 246.828,133.721 248.529,133.364 250.556 C 132.581 254.998,132.687 255.923,134.136 257.299 C 135.273 258.378,135.251 258.376,144.820 258.376 L 153.596 258.376 154.710 257.844 C 157.508 256.509,158.056 255.375,159.255 248.451 C 160.929 238.779,161.005 238.925,151.627 233.769 C 145.824 230.578,145.231 230.195,144.943 229.447 C 144.690 228.791,145.607 224.246,146.091 223.759 C 146.658 223.188,154.684 223.082,155.368 223.636 L 155.813 223.996 155.435 226.337 L 155.057 228.677 158.920 228.677 C 161.046 228.677,162.784 228.615,162.784 228.538 C 162.784 228.462,163.035 226.979,163.341 225.244 C 164.311 219.742,163.789 217.888,161.040 217.072 C 159.806 216.705,144.437 216.690,143.087 217.054 M180.147 217.030 C 180.107 217.158,179.599 219.977,179.018 223.295 C 178.437 226.613,177.851 229.954,177.715 230.719 C 177.579 231.485,176.840 235.661,176.073 240.000 C 174.218 250.484,173.230 256.025,172.998 257.241 C 172.893 257.791,172.807 258.273,172.807 258.312 C 172.807 258.351,174.541 258.361,176.659 258.333 L 180.510 258.283 180.914 255.963 C 181.658 251.680,183.386 241.954,183.495 241.439 L 183.603 240.928 188.696 240.928 L 193.789 240.928 193.695 241.346 C 193.644 241.575,193.472 242.515,193.313 243.434 C 193.155 244.353,192.502 248.090,191.862 251.740 L 190.699 258.376 194.533 258.376 L 198.367 258.376 198.571 257.216 C 198.967 254.952,200.265 247.634,201.113 242.877 C 201.586 240.223,202.296 236.213,202.691 233.968 C 204.011 226.451,204.750 222.293,205.207 219.802 C 205.457 218.443,205.661 217.211,205.661 217.064 C 205.661 216.842,205.038 216.798,201.871 216.798 L 198.081 216.798 197.978 217.309 C 197.823 218.076,196.858 223.497,195.855 229.234 L 194.963 234.339 189.918 234.388 C 185.200 234.434,184.872 234.416,184.874 234.110 C 184.875 233.823,185.796 228.456,187.367 219.587 C 187.628 218.109,187.842 216.877,187.842 216.849 C 187.842 216.649,180.211 216.828,180.147 217.030 M220.978 217.216 C 220.926 217.445,220.626 219.095,220.312 220.882 C 219.779 223.915,219.437 225.855,217.554 236.520 C 217.152 238.791,216.437 242.821,215.964 245.476 C 215.490 248.130,214.786 252.120,214.398 254.343 L 213.693 258.384 224.666 258.334 L 235.638 258.283 236.566 257.827 C 239.329 256.469,239.745 255.503,241.209 247.053 C 242.606 238.993,242.575 238.244,240.779 236.841 C 240.417 236.558,240.348 236.421,240.531 236.347 C 242.807 235.414,243.665 233.578,244.764 227.285 C 245.803 221.342,245.855 220.197,245.140 218.977 C 243.868 216.806,243.820 216.798,231.436 216.798 L 221.074 216.798 220.978 217.216 M261.826 217.309 C 261.767 217.589,261.337 219.991,260.870 222.645 C 260.404 225.299,259.741 229.058,259.397 230.998 C 259.053 232.937,258.352 236.905,257.837 239.814 C 257.323 242.724,256.561 247.026,256.143 249.374 C 255.725 251.722,255.196 254.708,254.966 256.009 L 254.549 258.376 258.412 258.376 C 260.536 258.376,262.274 258.317,262.274 258.245 C 262.274 257.964,264.517 245.212,264.790 243.944 L 264.879 243.527 269.516 243.527 C 275.456 243.527,275.138 243.336,274.535 246.534 C 274.336 247.585,273.874 250.158,273.507 252.251 C 273.141 254.343,272.760 256.457,272.662 256.946 C 272.350 258.497,272.043 258.376,276.284 258.376 C 280.075 258.376,280.086 258.375,280.179 257.958 C 280.230 257.729,280.613 255.578,281.030 253.179 C 281.447 250.780,281.950 247.898,282.146 246.775 C 282.761 243.259,282.557 241.924,281.201 240.605 C 280.862 240.275,280.619 239.979,280.663 239.949 C 280.707 239.918,281.108 239.648,281.554 239.349 C 283.194 238.248,283.920 236.871,284.440 233.875 C 284.591 233.007,285.136 229.892,285.652 226.953 C 286.725 220.836,286.742 220.568,286.143 219.282 C 285.004 216.836,284.795 216.798,272.282 216.798 L 261.932 216.798 261.826 217.309 M302.738 216.954 C 302.738 217.039,302.535 218.229,302.286 219.599 C 301.833 222.100,301.439 224.313,300.225 231.183 C 299.555 234.977,296.773 250.663,295.954 255.272 C 295.704 256.678,295.499 257.952,295.499 258.103 C 295.499 258.334,296.077 258.376,299.304 258.376 C 301.397 258.376,303.109 258.350,303.109 258.318 C 303.109 258.262,304.149 252.361,305.079 247.146 C 305.333 245.717,305.660 243.879,305.804 243.063 C 305.948 242.246,306.996 236.357,308.132 229.977 C 309.268 223.596,310.243 218.021,310.297 217.587 L 310.396 216.798 306.567 216.798 C 304.461 216.798,302.738 216.868,302.738 216.954 M329.517 217.084 C 327.787 217.550,326.234 218.842,325.371 220.533 C 324.956 221.348,324.853 221.849,323.328 230.534 C 322.301 236.381,322.277 236.518,320.925 244.176 C 320.402 247.137,319.814 250.478,319.617 251.601 C 319.010 255.071,319.359 256.530,321.083 257.725 L 321.888 258.283 331.417 258.334 L 340.946 258.386 341.136 257.406 C 341.723 254.390,342.088 252.367,342.088 252.138 C 342.088 251.921,340.894 251.879,334.664 251.879 C 330.580 251.879,327.239 251.836,327.239 251.783 C 327.239 251.729,327.496 250.247,327.809 248.488 C 328.665 243.695,329.093 241.223,329.094 241.067 C 329.095 240.991,331.800 240.928,335.107 240.928 L 341.118 240.928 341.247 240.046 C 341.318 239.561,341.535 238.329,341.728 237.309 C 341.922 236.288,342.122 235.223,342.173 234.942 L 342.265 234.432 336.305 234.432 L 330.346 234.432 330.449 233.828 C 330.506 233.497,330.934 231.071,331.401 228.438 C 331.868 225.805,332.251 223.572,332.251 223.475 C 332.251 223.368,335.163 223.280,339.722 223.250 L 347.193 223.202 347.501 221.439 C 347.670 220.469,347.932 219.028,348.082 218.237 L 348.354 216.798 339.421 216.810 C 332.352 216.820,330.285 216.877,329.517 217.084 M367.504 217.052 C 365.276 217.653,363.309 219.601,362.794 221.717 C 362.720 222.023,362.337 224.111,361.945 226.357 C 361.552 228.603,360.139 236.618,358.806 244.167 C 357.472 251.716,356.381 258.002,356.381 258.134 C 356.381 258.325,357.184 258.376,360.171 258.376 L 363.961 258.376 364.065 257.865 C 364.121 257.585,364.467 255.643,364.832 253.550 C 365.197 251.457,365.657 248.826,365.854 247.703 C 366.052 246.580,366.394 244.596,366.616 243.295 L 367.019 240.928 372.991 240.928 L 378.962 240.928 379.470 238.097 C 379.749 236.541,380.023 235.079,380.078 234.849 L 380.179 234.432 374.220 234.432 C 370.942 234.432,368.260 234.381,368.260 234.320 C 368.260 233.866,369.992 224.455,370.119 224.217 C 370.559 223.394,370.581 223.392,377.978 223.295 L 385.042 223.202 385.256 222.088 C 385.374 221.476,385.614 220.181,385.789 219.211 C 385.965 218.241,386.149 217.302,386.199 217.123 C 386.315 216.706,369.029 216.641,367.504 217.052 M115.081 223.657 C 115.081 223.856,114.784 225.673,114.420 227.694 C 114.056 229.715,113.430 233.206,113.028 235.452 C 112.626 237.698,112.254 239.724,112.201 239.954 L 112.104 240.371 107.029 240.371 L 101.954 240.371 102.472 237.448 C 102.757 235.840,103.252 233.063,103.572 231.276 C 103.893 229.490,104.285 227.234,104.444 226.265 C 104.941 223.230,104.751 223.322,110.580 223.306 C 114.924 223.295,115.081 223.307,115.081 223.657 M237.216 223.666 C 237.640 224.090,237.662 224.342,237.394 225.729 C 237.287 226.279,236.955 228.065,236.655 229.698 C 235.898 233.817,236.409 233.503,230.448 233.503 C 226.063 233.503,225.747 233.481,225.814 233.179 C 225.948 232.573,227.564 223.570,227.564 223.432 C 227.564 223.060,236.834 223.284,237.216 223.666 M278.051 223.666 C 278.474 224.089,278.490 224.238,278.243 225.467 C 278.145 225.956,277.678 228.526,277.207 231.178 C 276.051 237.682,276.779 237.030,270.664 237.030 L 266.036 237.030 266.647 233.550 C 266.983 231.636,267.515 228.631,267.828 226.872 C 268.142 225.113,268.399 223.589,268.399 223.484 C 268.399 223.070,277.629 223.244,278.051 223.666 M234.246 240.371 C 234.705 240.830,234.746 240.285,233.880 245.197 C 232.794 251.363,232.836 251.184,232.386 251.549 C 231.892 251.948,222.552 252.068,222.552 251.675 C 222.552 251.495,224.255 241.841,224.521 240.510 L 224.623 240.000 229.249 240.000 C 233.627 240.000,233.895 240.020,234.246 240.371 M267.703 244.779 C 268.800 244.812,270.596 244.812,271.694 244.779 C 272.791 244.746,271.893 244.719,269.698 244.719 C 267.503 244.719,266.606 244.746,267.703 244.779 M131.644 254.107 C 131.644 254.464,131.682 254.610,131.729 254.432 C 131.776 254.253,131.776 253.961,131.729 253.782 C 131.682 253.603,131.644 253.749,131.644 254.107 " stroke="none" fill="#dda76f" fill-rule="evenodd"></path><path id="path1" d="M196.151 17.022 C 196.382 17.067,196.716 17.065,196.893 17.018 C 197.071 16.972,196.882 16.936,196.473 16.938 C 196.065 16.940,195.920 16.978,196.151 17.022 M203.109 17.019 C 203.288 17.066,203.580 17.066,203.759 17.019 C 203.937 16.972,203.791 16.934,203.434 16.934 C 203.077 16.934,202.930 16.972,203.109 17.019 M244.504 28.161 C 244.786 28.204,245.203 28.203,245.432 28.159 C 245.660 28.114,245.429 28.080,244.919 28.081 C 244.408 28.082,244.222 28.118,244.504 28.161 M247.195 28.159 C 247.426 28.204,247.760 28.202,247.937 28.155 C 248.115 28.109,247.926 28.073,247.517 28.075 C 247.109 28.077,246.964 28.115,247.195 28.159 M156.092 30.209 L 155.452 30.905 156.148 30.265 C 156.796 29.670,156.930 29.513,156.788 29.513 C 156.757 29.513,156.444 29.826,156.092 30.209 M273.039 38.144 C 273.386 38.501,273.711 38.794,273.762 38.794 C 273.813 38.794,273.571 38.501,273.225 38.144 C 272.879 37.787,272.554 37.494,272.503 37.494 C 272.452 37.494,272.693 37.787,273.039 38.144 M144.497 39.768 L 143.016 41.299 144.548 39.819 C 145.390 39.004,146.079 38.315,146.079 38.287 C 146.079 38.152,145.872 38.346,144.497 39.768 M274.524 39.629 C 274.871 39.986,275.196 40.278,275.247 40.278 C 275.298 40.278,275.056 39.986,274.710 39.629 C 274.364 39.271,274.039 38.979,273.988 38.979 C 273.936 38.979,274.178 39.271,274.524 39.629 M279.583 51.137 C 279.585 51.545,279.623 51.690,279.667 51.460 C 279.712 51.229,279.710 50.895,279.663 50.717 C 279.617 50.540,279.581 50.729,279.583 51.137 M279.583 52.993 C 279.585 53.401,279.623 53.547,279.667 53.316 C 279.712 53.085,279.710 52.751,279.663 52.573 C 279.617 52.396,279.581 52.585,279.583 52.993 M95.592 76.039 C 95.592 76.140,95.821 76.425,96.102 76.673 L 96.613 77.123 96.148 76.566 C 95.893 76.260,95.664 75.974,95.638 75.932 C 95.613 75.889,95.592 75.937,95.592 76.039 M97.448 77.831 C 97.448 77.863,97.719 78.134,98.051 78.434 L 98.654 78.979 98.109 78.376 C 97.601 77.814,97.448 77.687,97.448 77.831 M99.861 80.093 C 100.207 80.450,100.532 80.742,100.583 80.742 C 100.634 80.742,100.393 80.450,100.046 80.093 C 99.700 79.735,99.375 79.443,99.324 79.443 C 99.273 79.443,99.514 79.735,99.861 80.093 M301.057 80.510 L 300.418 81.206 301.114 80.567 C 301.497 80.215,301.810 79.902,301.810 79.871 C 301.810 79.729,301.653 79.863,301.057 80.510 M101.903 81.949 C 102.249 82.306,102.574 82.599,102.625 82.599 C 102.676 82.599,102.434 82.306,102.088 81.949 C 101.742 81.592,101.417 81.299,101.366 81.299 C 101.315 81.299,101.556 81.592,101.903 81.949 M103.759 83.619 C 104.105 83.977,104.430 84.269,104.481 84.269 C 104.532 84.269,104.291 83.977,103.944 83.619 C 103.598 83.262,103.273 82.970,103.222 82.970 C 103.171 82.970,103.412 83.262,103.759 83.619 M297.251 83.944 L 296.705 84.548 297.309 84.002 C 297.640 83.703,297.912 83.431,297.912 83.399 C 297.912 83.256,297.759 83.382,297.251 83.944 M295.209 85.800 L 294.664 86.404 295.267 85.859 C 295.829 85.350,295.955 85.197,295.812 85.197 C 295.780 85.197,295.509 85.469,295.209 85.800 M107.100 86.555 C 107.100 86.587,107.371 86.858,107.703 87.158 L 108.306 87.703 107.761 87.100 C 107.253 86.537,107.100 86.411,107.100 86.555 M293.353 87.471 L 292.807 88.074 293.411 87.529 C 293.742 87.229,294.014 86.958,294.014 86.926 C 294.014 86.782,293.861 86.909,293.353 87.471 M109.513 88.817 C 109.859 89.174,110.184 89.466,110.235 89.466 C 110.286 89.466,110.045 89.174,109.698 88.817 C 109.352 88.459,109.027 88.167,108.976 88.167 C 108.925 88.167,109.166 88.459,109.513 88.817 M110.812 89.896 C 110.812 89.928,111.084 90.199,111.415 90.499 L 112.019 91.044 111.473 90.441 C 110.965 89.879,110.812 89.752,110.812 89.896 M289.549 90.905 L 288.910 91.601 289.606 90.961 C 289.988 90.609,290.302 90.296,290.302 90.265 C 290.302 90.123,290.145 90.257,289.549 90.905 M112.854 91.752 C 112.854 91.784,113.125 92.055,113.457 92.355 L 114.060 92.900 113.515 92.297 C 113.007 91.735,112.854 91.608,112.854 91.752 M116.752 95.278 C 116.752 95.310,117.023 95.582,117.355 95.882 L 117.958 96.427 117.413 95.824 C 116.905 95.261,116.752 95.135,116.752 95.278 M281.939 97.773 L 281.299 98.469 281.995 97.829 C 282.643 97.234,282.777 97.077,282.635 97.077 C 282.604 97.077,282.291 97.390,281.939 97.773 M121.206 99.397 C 121.553 99.754,121.878 100.046,121.929 100.046 C 121.980 100.046,121.738 99.754,121.392 99.397 C 121.046 99.039,120.721 98.747,120.670 98.747 C 120.619 98.747,120.860 99.039,121.206 99.397 M279.988 99.536 L 279.443 100.139 280.046 99.594 C 280.609 99.086,280.735 98.933,280.592 98.933 C 280.560 98.933,280.288 99.204,279.988 99.536 M137.212 100.418 C 137.212 100.775,137.251 100.921,137.297 100.742 C 137.344 100.564,137.344 100.271,137.297 100.093 C 137.251 99.914,137.212 100.060,137.212 100.418 M137.212 105.429 C 137.212 105.787,137.251 105.933,137.297 105.754 C 137.344 105.575,137.344 105.283,137.297 105.104 C 137.251 104.926,137.212 105.072,137.212 105.429 M301.624 113.840 C 301.624 113.872,301.896 114.143,302.227 114.443 L 302.831 114.988 302.285 114.385 C 301.777 113.823,301.624 113.697,301.624 113.840 M144.408 123.712 C 144.755 124.070,145.080 124.362,145.131 124.362 C 145.182 124.362,144.940 124.070,144.594 123.712 C 144.248 123.355,143.923 123.063,143.871 123.063 C 143.820 123.063,144.062 123.355,144.408 123.712 M147.925 130.255 L 147.285 130.951 147.981 130.312 C 148.364 129.960,148.677 129.647,148.677 129.616 C 148.677 129.474,148.520 129.607,147.925 130.255 M266.772 142.738 C 266.772 143.095,266.810 143.241,266.856 143.063 C 266.903 142.884,266.903 142.592,266.856 142.413 C 266.810 142.234,266.772 142.381,266.772 142.738 M130.111 145.476 L 128.910 146.729 130.162 145.527 C 130.852 144.867,131.415 144.303,131.415 144.275 C 131.415 144.138,131.226 144.312,130.111 145.476 M123.861 159.814 C 123.861 160.376,123.896 160.606,123.938 160.325 C 123.981 160.044,123.981 159.585,123.938 159.304 C 123.896 159.023,123.861 159.253,123.861 159.814 M277.537 159.629 C 277.537 159.986,277.575 160.132,277.622 159.954 C 277.669 159.775,277.669 159.483,277.622 159.304 C 277.575 159.125,277.537 159.271,277.537 159.629 M131.044 175.870 C 131.702 176.534,132.282 177.077,132.333 177.077 C 132.384 177.077,131.887 176.534,131.230 175.870 C 130.572 175.206,129.992 174.664,129.941 174.664 C 129.890 174.664,130.386 175.206,131.044 175.870 M260.593 192.807 L 259.954 193.503 260.650 192.864 C 261.298 192.268,261.431 192.111,261.289 192.111 C 261.258 192.111,260.945 192.425,260.593 192.807 M256.887 196.705 L 255.128 198.515 256.937 196.755 C 258.618 195.121,258.832 194.896,258.697 194.896 C 258.669 194.896,257.855 195.710,256.887 196.705 M252.989 200.603 L 251.415 202.227 253.039 200.654 C 254.548 199.192,254.748 198.979,254.613 198.979 C 254.585 198.979,253.854 199.710,252.989 200.603 M249.176 204.223 L 248.631 204.826 249.234 204.281 C 249.797 203.773,249.923 203.619,249.780 203.619 C 249.748 203.619,249.476 203.891,249.176 204.223 M247.134 206.079 L 246.589 206.682 247.193 206.137 C 247.755 205.629,247.881 205.476,247.738 205.476 C 247.706 205.476,247.434 205.747,247.134 206.079 M327.749 216.347 C 327.030 216.738,327.111 216.873,327.842 216.501 C 328.542 216.145,328.666 216.053,328.430 216.063 C 328.336 216.067,328.030 216.195,327.749 216.347 M311.670 216.705 C 311.655 217.012,311.347 218.933,310.985 220.974 C 310.623 223.016,310.163 225.606,309.964 226.729 C 309.764 227.852,309.397 229.940,309.147 231.369 C 308.897 232.798,308.530 234.886,308.330 236.009 C 308.131 237.132,307.756 239.262,307.498 240.742 C 307.071 243.190,306.869 244.309,305.963 249.281 C 305.805 250.148,305.633 251.109,305.582 251.415 C 305.530 251.722,305.324 252.891,305.123 254.014 C 304.922 255.137,304.627 256.870,304.467 257.865 L 304.176 259.675 300.685 259.675 C 297.353 259.675,297.190 259.692,297.089 260.046 C 297.031 260.251,296.936 260.585,296.878 260.789 C 296.775 261.154,296.862 261.160,301.974 261.160 L 307.176 261.160 307.286 260.464 C 307.490 259.179,307.950 256.620,308.128 255.777 C 308.226 255.318,308.428 254.190,308.577 253.271 C 308.727 252.353,309.022 250.640,309.233 249.466 C 309.444 248.292,309.820 246.162,310.069 244.733 C 310.319 243.304,310.740 240.923,311.007 239.443 C 311.273 237.963,311.646 235.833,311.835 234.710 C 312.025 233.587,312.349 231.749,312.556 230.626 C 312.944 228.519,313.209 227.039,313.970 222.738 C 314.214 221.360,314.535 219.564,314.683 218.747 C 315.016 216.906,315.076 216.984,313.320 216.984 C 311.952 216.984,311.854 216.957,311.778 216.566 C 311.715 216.236,311.692 216.266,311.670 216.705 M69.102 218.950 C 68.699 221.484,68.153 224.630,67.382 228.863 C 67.168 230.037,66.875 231.666,66.731 232.483 C 66.586 233.299,66.251 235.179,65.985 236.659 C 65.271 240.637,64.814 243.229,64.496 245.104 C 64.340 246.023,64.098 247.360,63.958 248.074 C 63.818 248.789,63.649 249.687,63.583 250.070 L 63.463 250.766 65.142 250.766 C 66.066 250.766,66.822 250.703,66.822 250.626 C 66.823 250.356,67.866 244.416,68.590 240.557 C 68.752 239.689,69.045 238.060,69.240 236.937 C 69.435 235.814,69.810 233.684,70.074 232.204 C 70.788 228.199,71.190 225.923,71.730 222.831 C 71.997 221.299,72.330 219.420,72.469 218.654 C 72.786 216.917,72.841 216.984,71.093 216.984 C 69.881 216.984,69.623 216.931,69.573 216.676 C 69.540 216.506,69.328 217.530,69.102 218.950 M245.390 217.359 C 246.907 218.858,247.204 220.476,246.603 223.944 C 246.461 224.761,246.126 226.724,245.857 228.306 C 244.983 233.456,244.722 234.180,243.140 235.825 L 242.425 236.568 242.929 237.588 C 243.613 238.969,243.607 241.100,242.908 244.826 C 242.631 246.306,242.235 248.561,242.029 249.838 C 241.069 255.766,240.113 257.458,236.845 259.009 L 235.638 259.582 225.476 259.635 C 216.016 259.684,215.313 259.709,215.311 260.006 C 215.309 260.181,215.258 260.513,215.196 260.742 L 215.084 261.160 226.502 261.160 C 239.236 261.160,239.274 261.157,241.129 259.840 C 243.268 258.323,244.150 256.707,244.717 253.271 C 244.868 252.353,245.163 250.557,245.372 249.281 C 245.580 248.005,245.830 246.585,245.927 246.125 C 246.836 241.805,246.792 240.159,245.729 238.666 L 245.352 238.136 245.886 237.629 C 247.413 236.180,248.019 234.826,248.561 231.655 C 250.197 222.064,250.166 222.345,249.746 221.040 C 249.151 219.193,247.899 217.904,246.152 217.337 C 245.780 217.216,245.225 216.943,244.919 216.730 C 244.613 216.517,244.825 216.800,245.390 217.359 M349.534 216.955 C 349.522 217.296,349.353 218.382,349.157 219.368 C 348.961 220.353,348.704 221.787,348.586 222.552 C 348.468 223.318,348.330 224.090,348.280 224.269 C 348.195 224.572,347.677 224.594,340.771 224.594 C 334.994 224.594,333.339 224.645,333.289 224.826 C 333.254 224.954,333.045 226.144,332.824 227.471 C 332.602 228.798,332.295 230.583,332.141 231.437 C 331.987 232.291,331.902 233.031,331.951 233.080 C 332.001 233.130,334.632 233.216,337.799 233.272 C 342.865 233.361,343.566 233.409,343.636 233.671 C 343.687 233.861,343.723 233.817,343.737 233.550 L 343.759 233.132 339.490 233.132 C 336.198 233.132,335.220 233.079,335.220 232.900 C 335.220 232.773,335.486 231.186,335.812 229.374 L 336.404 226.079 343.781 226.079 C 352.037 226.079,351.221 226.227,351.468 224.687 C 351.619 223.752,351.996 221.716,352.479 219.239 C 352.934 216.904,352.980 216.984,351.186 216.984 C 349.951 216.984,349.712 216.934,349.641 216.659 C 349.594 216.480,349.546 216.613,349.534 216.955 M387.386 217.077 C 387.375 217.383,387.248 218.260,387.104 219.026 C 386.961 219.791,386.712 221.169,386.551 222.088 C 386.390 223.007,386.216 223.947,386.165 224.176 L 386.072 224.594 378.664 224.594 L 371.256 224.594 371.060 225.568 C 370.952 226.104,370.730 227.336,370.567 228.306 C 370.403 229.276,370.156 230.735,370.016 231.548 C 369.876 232.361,369.793 233.057,369.831 233.094 C 369.868 233.132,372.491 233.211,375.660 233.269 C 381.319 233.373,381.422 233.382,381.497 233.764 C 381.556 234.063,381.579 234.035,381.599 233.643 L 381.624 233.132 377.355 233.132 C 374.064 233.132,373.086 233.079,373.085 232.900 C 373.085 232.451,373.816 228.362,374.189 226.729 L 374.316 226.172 381.689 226.123 C 387.355 226.086,389.078 226.021,389.132 225.845 C 389.170 225.718,389.386 224.571,389.612 223.295 C 389.837 222.019,390.179 220.153,390.371 219.148 C 390.798 216.916,390.839 216.984,389.053 216.984 C 388.060 216.984,387.565 216.910,387.501 216.752 C 387.450 216.624,387.398 216.770,387.386 217.077 M125.045 218.007 C 124.988 218.621,124.851 219.498,124.741 219.956 C 124.631 220.414,124.248 222.501,123.891 224.594 C 123.533 226.687,123.121 229.067,122.974 229.884 C 122.827 230.701,122.536 232.329,122.327 233.503 C 122.117 234.677,121.864 236.056,121.765 236.566 C 121.666 237.077,121.410 238.497,121.197 239.722 C 120.985 240.947,120.656 242.826,120.468 243.898 C 120.279 244.970,119.906 247.100,119.637 248.631 C 119.369 250.162,118.986 252.334,118.786 253.457 C 118.586 254.580,118.297 256.251,118.144 257.169 C 117.991 258.088,117.822 259.028,117.769 259.258 C 117.673 259.672,117.650 259.675,114.173 259.675 L 110.673 259.675 110.557 260.255 C 110.493 260.574,110.441 260.910,110.441 261.001 C 110.441 261.095,112.665 261.145,115.592 261.117 L 120.742 261.067 120.859 260.325 C 120.923 259.916,121.200 258.329,121.475 256.798 C 121.749 255.267,122.132 253.095,122.324 251.972 C 122.516 250.849,123.060 247.800,123.531 245.197 C 124.002 242.594,124.504 239.796,124.647 238.979 C 124.789 238.162,125.077 236.534,125.286 235.360 C 125.495 234.186,125.870 232.056,126.120 230.626 C 126.370 229.197,126.737 227.109,126.937 225.986 C 127.588 222.320,128.273 218.390,128.383 217.694 L 128.491 217.011 126.820 216.951 L 125.149 216.891 125.045 218.007 M188.996 217.360 C 188.984 217.792,188.464 220.817,188.023 223.016 C 187.848 223.887,187.616 225.237,186.719 230.604 C 186.516 231.816,186.310 232.872,186.262 232.950 C 186.161 233.114,192.208 233.391,193.318 233.274 C 193.726 233.230,193.039 233.181,191.791 233.163 L 189.522 233.132 189.623 232.529 C 189.678 232.197,189.801 231.550,189.895 231.090 C 190.122 229.979,192.041 219.016,192.240 217.694 L 192.342 217.011 190.676 216.951 L 189.009 216.891 188.996 217.360 M286.337 217.379 C 287.603 218.737,288.074 220.465,287.721 222.459 C 287.613 223.072,287.310 224.784,287.048 226.265 C 286.786 227.745,286.414 229.875,286.220 230.998 C 285.417 235.647,285.248 236.423,284.843 237.309 C 284.610 237.819,284.026 238.671,283.546 239.202 L 282.673 240.168 283.000 240.780 C 283.807 242.290,284.016 243.882,283.635 245.625 C 283.541 246.053,283.372 246.988,283.259 247.703 C 283.145 248.418,282.888 249.900,282.686 250.998 C 281.947 255.028,281.594 257.015,281.387 258.326 L 281.174 259.667 277.620 259.718 L 274.066 259.768 273.953 260.464 L 273.840 261.160 278.989 261.160 L 284.137 261.160 284.332 260.093 C 284.595 258.656,285.233 255.076,285.350 254.385 C 285.401 254.079,285.572 253.118,285.729 252.251 C 287.039 245.027,286.998 245.341,286.771 244.269 C 286.652 243.708,286.350 242.894,286.100 242.460 L 285.647 241.672 286.466 240.818 C 287.336 239.910,288.017 238.713,288.291 237.610 C 288.452 236.965,288.591 236.199,289.644 230.162 C 289.902 228.682,290.279 226.552,290.480 225.429 C 291.262 221.073,290.535 219.023,287.743 217.716 C 287.057 217.396,286.329 217.048,286.125 216.943 C 285.875 216.815,285.944 216.958,286.337 217.379 M46.227 218.422 C 46.012 219.777,45.382 223.259,45.187 224.176 L 45.097 224.594 37.696 224.594 L 30.295 224.594 29.897 226.775 C 29.678 227.974,29.384 229.582,29.244 230.348 C 29.104 231.114,28.939 232.040,28.877 232.407 L 28.764 233.075 31.134 233.196 C 32.437 233.262,35.063 233.317,36.970 233.317 C 40.115 233.318,40.445 233.348,40.522 233.643 C 40.586 233.887,40.612 233.864,40.628 233.550 L 40.650 233.132 36.381 233.132 C 33.087 233.132,32.112 233.079,32.115 232.900 C 32.117 232.773,32.235 232.000,32.378 231.183 C 32.520 230.367,32.767 228.947,32.928 228.028 C 33.088 227.109,33.220 226.295,33.222 226.218 C 33.224 226.142,36.565 226.079,40.646 226.079 L 48.067 226.079 48.174 225.568 C 48.233 225.288,48.360 224.724,48.457 224.316 C 48.554 223.907,48.759 222.821,48.912 221.903 C 49.065 220.984,49.313 219.573,49.462 218.768 C 49.803 216.935,49.843 216.984,47.996 216.984 L 46.455 216.984 46.227 218.422 M206.880 217.587 C 206.810 217.919,206.592 219.109,206.396 220.232 C 206.013 222.422,205.252 226.723,204.819 229.142 C 203.991 233.764,203.748 235.140,203.342 237.494 C 203.097 238.923,202.720 241.053,202.506 242.227 C 202.292 243.401,201.916 245.531,201.672 246.961 C 201.428 248.390,201.052 250.520,200.836 251.694 C 200.075 255.842,199.903 256.811,199.718 258.005 C 199.616 258.668,199.494 259.316,199.447 259.443 C 199.383 259.618,198.486 259.675,195.829 259.675 L 192.297 259.675 192.297 260.124 C 192.297 260.371,192.246 260.705,192.184 260.866 C 192.083 261.130,192.608 261.160,197.289 261.160 C 200.158 261.160,202.506 261.097,202.507 261.021 C 202.507 260.849,202.894 258.573,203.523 255.035 C 203.787 253.555,204.167 251.404,204.368 250.255 C 204.569 249.107,204.899 247.227,205.102 246.079 C 205.305 244.930,205.677 242.821,205.929 241.392 C 206.180 239.963,206.687 237.123,207.054 235.081 C 207.765 231.134,208.418 227.463,209.002 224.130 C 209.199 223.007,209.529 221.128,209.737 219.954 C 210.304 216.743,210.399 216.984,208.561 216.984 L 207.007 216.984 206.880 217.587 M22.543 217.958 L 21.810 218.747 22.599 218.013 C 23.332 217.331,23.473 217.169,23.332 217.169 C 23.302 217.169,22.947 217.524,22.543 217.958 M164.158 217.812 C 165.330 219.348,165.440 220.984,164.654 225.151 C 164.433 226.325,164.148 227.870,164.021 228.585 L 163.791 229.884 158.786 229.879 C 156.034 229.876,154.429 229.900,155.220 229.933 L 156.659 229.992 156.659 230.727 L 156.659 231.462 161.660 231.462 C 164.976 231.462,166.701 231.396,166.782 231.265 C 166.848 231.157,167.104 229.884,167.350 228.435 C 167.597 226.986,167.877 225.425,167.974 224.965 C 168.786 221.124,167.257 218.016,164.192 217.277 L 163.651 217.147 164.158 217.812 M325.653 217.958 L 324.919 218.747 325.708 218.013 C 326.441 217.331,326.582 217.169,326.441 217.169 C 326.411 217.169,326.056 217.524,325.653 217.958 M98.097 218.144 C 97.723 218.578,97.329 219.100,97.222 219.304 C 96.974 219.775,97.029 219.717,98.075 218.422 C 99.077 217.181,99.092 216.988,98.097 218.144 M363.515 217.958 L 362.970 218.561 363.573 218.016 C 364.135 217.508,364.262 217.355,364.118 217.355 C 364.086 217.355,363.815 217.626,363.515 217.958 M324.453 219.443 C 324.250 219.775,324.085 220.123,324.084 220.217 C 324.083 220.428,324.110 220.393,324.601 219.536 C 325.089 218.683,324.964 218.605,324.453 219.443 M106.086 224.768 C 106.027 224.864,105.696 226.514,105.351 228.434 C 105.005 230.354,104.632 232.427,104.520 233.039 C 103.968 236.081,103.531 238.906,103.602 238.977 C 103.646 239.021,105.349 239.090,107.386 239.131 C 109.424 239.171,110.104 239.171,108.899 239.132 C 106.931 239.068,106.717 239.028,106.805 238.741 C 106.859 238.566,107.027 237.671,107.177 236.752 C 107.425 235.242,107.798 233.127,108.732 227.935 L 109.049 226.172 111.276 226.079 L 113.503 225.986 113.564 225.290 L 113.625 224.594 109.909 224.594 C 107.795 224.594,106.147 224.669,106.086 224.768 M146.914 224.780 C 146.729 225.079,146.112 228.920,146.209 229.171 C 146.257 229.296,149.025 230.914,152.359 232.765 C 161.618 237.906,162.205 238.811,160.949 246.009 C 160.608 247.961,160.164 250.561,159.962 251.787 C 159.398 255.211,158.393 257.001,156.257 258.381 C 154.269 259.666,153.927 259.703,144.382 259.639 L 135.911 259.582 136.679 260.092 C 138.313 261.176,138.342 261.179,148.060 261.121 L 156.957 261.067 158.339 260.382 C 160.855 259.134,162.165 257.347,162.769 254.338 C 165.631 240.087,165.514 239.777,155.135 234.074 C 148.675 230.524,149.008 230.784,149.273 229.498 C 149.377 228.996,149.558 228.042,149.677 227.378 L 149.892 226.172 151.976 226.119 L 154.060 226.067 154.060 226.568 C 154.060 227.389,154.188 226.994,154.323 225.754 L 154.450 224.594 150.739 224.594 C 148.457 224.594,146.985 224.666,146.914 224.780 M228.589 225.012 C 228.481 225.482,227.591 230.219,227.390 231.388 L 227.260 232.150 229.593 232.269 C 234.643 232.527,235.220 232.440,235.159 231.428 C 235.151 231.293,235.061 231.413,234.958 231.694 L 234.772 232.204 232.633 232.204 L 230.493 232.204 230.623 231.694 C 230.695 231.413,230.907 230.306,231.096 229.234 C 231.284 228.162,231.496 227.014,231.566 226.682 L 231.694 226.079 233.792 226.079 C 235.821 226.079,235.893 226.093,235.971 226.497 C 236.018 226.740,236.063 226.604,236.079 226.172 C 236.095 225.763,236.158 225.241,236.219 225.012 L 236.331 224.594 232.508 224.594 C 228.695 224.594,228.684 224.595,228.589 225.012 M269.513 224.661 C 269.513 224.699,269.425 225.179,269.318 225.729 C 269.210 226.279,268.964 227.647,268.770 228.770 C 268.576 229.893,268.218 231.961,267.973 233.364 L 267.528 235.916 269.149 235.916 L 270.770 235.916 270.867 235.406 C 270.921 235.125,271.175 233.684,271.433 232.204 C 271.691 230.724,272.033 228.803,272.192 227.935 C 272.352 227.067,272.482 226.295,272.482 226.218 C 272.483 225.883,276.721 226.065,276.809 226.404 C 276.856 226.582,276.904 226.380,276.916 225.955 C 276.928 225.529,276.988 225.049,277.050 224.888 C 277.151 224.626,276.749 224.594,273.338 224.594 C 271.234 224.594,269.513 224.624,269.513 224.661 M135.740 230.534 C 135.740 231.095,135.775 231.325,135.817 231.044 C 135.860 230.763,135.860 230.304,135.817 230.023 C 135.775 229.742,135.740 229.972,135.740 230.534 M40.317 234.617 C 40.323 234.872,40.102 236.334,39.826 237.865 C 39.549 239.397,39.277 240.963,39.220 241.346 L 39.116 242.042 33.132 242.042 L 27.148 242.042 27.037 242.645 C 26.875 243.516,26.279 246.899,25.720 250.116 C 25.454 251.647,25.067 253.861,24.860 255.035 C 24.654 256.209,24.390 257.733,24.274 258.422 L 24.064 259.675 20.574 259.675 L 17.084 259.675 16.972 260.186 C 16.910 260.466,16.828 260.800,16.788 260.928 C 16.732 261.110,17.841 261.160,21.908 261.160 C 24.764 261.160,27.101 261.139,27.103 261.114 C 27.126 260.800,28.136 254.981,29.044 249.930 C 29.172 249.216,29.469 247.483,29.703 246.079 L 30.128 243.527 36.131 243.527 C 39.433 243.527,42.135 243.464,42.136 243.387 C 42.136 243.311,42.304 242.309,42.507 241.160 C 42.711 240.012,43.044 238.132,43.247 236.984 C 43.451 235.835,43.618 234.833,43.618 234.756 C 43.619 234.680,42.916 234.617,42.057 234.617 C 40.982 234.617,40.466 234.545,40.400 234.385 C 40.349 234.258,40.311 234.362,40.317 234.617 M380.898 237.123 C 380.660 238.552,380.378 240.244,380.271 240.882 L 380.078 242.042 374.105 242.042 L 368.133 242.042 367.811 243.852 C 367.634 244.847,367.412 246.037,367.318 246.497 C 367.225 246.956,366.969 248.376,366.751 249.652 C 366.533 250.928,366.209 252.807,366.031 253.828 C 365.853 254.849,365.555 256.582,365.369 257.680 L 365.031 259.675 361.553 259.675 C 358.400 259.675,358.068 259.705,357.985 260.000 C 357.936 260.179,357.841 260.513,357.775 260.742 L 357.655 261.160 362.843 261.160 L 368.032 261.160 368.118 260.650 C 368.398 258.989,369.033 255.362,369.182 254.571 C 369.279 254.060,369.535 252.640,369.752 251.415 C 369.969 250.190,370.302 248.351,370.491 247.327 C 370.680 246.304,370.892 245.030,370.963 244.497 L 371.092 243.527 377.100 243.527 C 380.405 243.527,383.109 243.500,383.109 243.467 C 383.109 243.360,384.039 238.092,384.311 236.659 C 384.722 234.489,384.828 234.652,382.963 234.584 L 381.332 234.524 380.898 237.123 M343.022 237.077 C 342.789 238.429,342.502 240.079,342.385 240.742 L 342.173 241.949 336.211 241.998 L 330.250 242.047 330.156 242.555 C 330.104 242.834,329.884 244.107,329.667 245.383 C 329.449 246.659,329.148 248.305,328.998 249.041 C 328.847 249.777,328.724 250.466,328.724 250.572 C 328.724 250.692,329.348 250.766,330.358 250.766 L 331.991 250.766 332.297 248.956 C 332.466 247.961,332.746 246.332,332.920 245.336 L 333.236 243.527 339.201 243.527 L 345.166 243.527 345.504 241.624 C 345.689 240.578,345.991 238.928,346.174 237.958 C 346.357 236.988,346.564 235.840,346.634 235.406 L 346.761 234.617 345.103 234.617 L 343.446 234.617 343.022 237.077 M137.355 235.418 C 137.355 235.450,137.626 235.721,137.958 236.021 L 138.561 236.566 138.016 235.963 C 137.508 235.401,137.355 235.274,137.355 235.418 M225.622 241.531 C 225.581 241.659,225.421 242.515,225.265 243.434 C 225.109 244.353,224.806 246.065,224.591 247.239 C 224.377 248.413,224.153 249.690,224.094 250.077 L 223.986 250.781 225.632 250.727 L 227.278 250.673 227.488 249.466 C 227.603 248.803,227.833 247.466,228.000 246.497 C 228.166 245.527,228.400 244.295,228.519 243.759 L 228.737 242.784 230.826 242.784 C 232.330 242.784,232.939 242.849,232.998 243.016 C 233.044 243.144,233.113 242.810,233.153 242.274 L 233.225 241.299 229.461 241.299 C 226.612 241.299,225.678 241.356,225.622 241.531 M184.603 242.274 C 184.564 242.401,184.358 243.550,184.147 244.826 C 183.935 246.102,183.589 248.107,183.379 249.281 C 183.168 250.455,182.880 252.084,182.738 252.900 C 182.176 256.132,181.883 257.769,181.698 258.701 L 181.505 259.675 178.015 259.675 L 174.524 259.675 174.408 260.255 C 174.345 260.574,174.292 260.910,174.292 261.001 C 174.292 261.095,176.515 261.145,179.438 261.117 L 184.584 261.067 184.717 260.325 C 185.162 257.842,186.425 250.674,186.909 247.889 C 187.104 246.766,187.361 245.325,187.480 244.687 L 187.696 243.527 189.797 243.527 C 191.642 243.527,191.909 243.566,191.983 243.852 C 192.030 244.030,192.079 243.884,192.092 243.527 C 192.106 243.169,192.167 242.689,192.228 242.459 L 192.340 242.042 188.508 242.042 C 185.604 242.042,184.658 242.098,184.603 242.274 M265.637 246.172 C 265.522 246.912,265.217 248.687,264.959 250.116 C 264.701 251.545,264.286 253.884,264.037 255.313 C 263.788 256.742,263.517 258.288,263.435 258.747 L 263.285 259.582 259.771 259.675 L 256.258 259.768 256.129 260.232 C 256.058 260.487,255.992 260.800,255.981 260.928 C 255.967 261.109,257.113 261.160,261.143 261.160 L 266.324 261.160 266.537 259.814 C 266.654 259.074,266.917 257.550,267.121 256.427 C 267.325 255.304,267.574 253.884,267.675 253.271 C 267.775 252.659,267.936 251.740,268.031 251.230 C 268.127 250.719,268.334 249.592,268.491 248.724 C 268.648 247.856,268.819 246.958,268.870 246.729 C 268.980 246.233,273.093 246.060,273.288 246.543 C 273.339 246.671,273.388 246.469,273.396 246.094 C 273.404 245.720,273.461 245.281,273.523 245.120 C 273.624 244.858,273.216 244.826,269.741 244.826 L 265.846 244.826 265.637 246.172 M142.769 247.889 C 142.632 248.910,142.476 249.974,142.421 250.255 L 142.320 250.766 143.897 250.766 L 145.474 250.766 145.677 249.977 C 145.788 249.543,145.930 248.812,145.993 248.353 C 146.055 247.893,146.147 247.371,146.198 247.193 C 146.280 246.902,146.126 246.868,144.712 246.868 C 143.218 246.868,143.132 246.846,143.076 246.450 C 143.043 246.220,142.905 246.868,142.769 247.889 M101.903 248.102 C 101.903 248.169,101.780 248.858,101.631 249.633 C 101.482 250.409,101.196 251.963,100.995 253.086 C 100.794 254.209,100.441 256.151,100.209 257.401 L 99.788 259.675 96.320 259.675 L 92.853 259.675 92.664 260.418 L 92.476 261.160 97.650 261.160 L 102.824 261.160 102.917 260.742 C 102.968 260.513,103.141 259.573,103.301 258.654 C 103.703 256.342,104.440 252.206,104.697 250.812 L 104.912 249.652 107.013 249.652 C 108.858 249.652,109.125 249.692,109.199 249.977 C 109.246 250.155,109.294 250.041,109.306 249.722 C 109.317 249.403,109.379 248.881,109.443 248.561 L 109.559 247.981 105.731 247.981 C 103.625 247.981,101.903 248.036,101.903 248.102 M77.990 253.318 C 77.879 253.905,77.564 255.578,77.289 257.035 L 76.789 259.685 67.013 259.633 C 56.471 259.578,56.984 259.530,58.469 260.440 C 59.596 261.130,60.350 261.174,70.249 261.120 L 79.894 261.067 80.309 258.654 C 80.537 257.327,80.883 255.343,81.077 254.246 L 81.429 252.251 79.811 252.251 L 78.192 252.251 77.990 253.318 M343.371 252.297 C 343.342 252.383,342.705 255.851,342.366 257.777 L 342.030 259.685 332.248 259.633 L 322.466 259.582 323.187 260.112 C 324.590 261.144,324.773 261.160,335.318 261.160 L 345.010 261.160 345.427 258.886 C 345.657 257.636,346.002 255.792,346.194 254.789 C 346.717 252.053,346.813 252.251,344.965 252.251 C 344.097 252.251,343.380 252.271,343.371 252.297 M318.014 254.107 C 318.014 254.668,318.049 254.898,318.091 254.617 C 318.134 254.336,318.134 253.877,318.091 253.596 C 318.049 253.316,318.014 253.545,318.014 254.107 M52.765 254.107 C 52.765 254.566,52.801 254.754,52.846 254.524 C 52.890 254.295,52.890 253.919,52.846 253.689 C 52.801 253.459,52.765 253.647,52.765 254.107 M131.801 255.974 C 131.793 256.133,131.916 256.425,132.075 256.623 C 132.359 256.978,132.361 256.978,132.193 256.613 C 132.099 256.408,131.976 256.116,131.919 255.963 C 131.830 255.722,131.814 255.724,131.801 255.974 M53.602 257.169 C 53.710 257.374,54.115 257.833,54.503 258.190 C 55.143 258.780,54.597 258.078,53.493 256.891 C 53.446 256.840,53.495 256.965,53.602 257.169 " stroke="none" fill="#4b4b4b" fill-rule="evenodd"></path><path id="path2" d="M215.777 73.989 C 209.570 75.102,203.677 78.653,200.772 83.031 C 196.196 89.924,196.737 99.727,202.057 106.331 C 208.073 113.799,218.735 116.458,227.125 112.582 C 228.830 111.794,228.833 111.861,227.146 113.051 C 224.899 114.638,222.823 115.568,220.371 116.089 C 217.373 116.726,213.846 120.242,212.172 124.264 C 206.790 137.192,213.440 151.513,226.919 156.024 C 237.259 159.484,251.339 156.815,256.365 150.443 L 256.674 150.051 253.932 150.129 C 250.649 150.222,248.768 149.914,246.701 148.943 C 245.054 148.170,245.069 148.116,246.868 148.347 C 253.596 149.210,260.502 147.331,262.097 144.205 C 263.218 142.009,261.795 141.005,258.321 141.541 C 257.484 141.670,255.963 141.904,254.942 142.061 C 241.378 144.147,227.159 141.791,220.659 136.381 C 219.259 135.217,219.330 135.176,221.357 135.976 C 230.969 139.768,244.928 141.113,255.764 139.290 C 257.237 139.043,258.765 138.840,259.161 138.840 C 261.308 138.840,262.839 130.419,261.556 125.661 C 260.431 121.485,258.642 118.899,254.849 115.966 C 253.981 115.295,252.857 114.320,252.350 113.800 C 250.457 111.855,249.318 112.551,248.809 115.963 C 248.663 116.942,248.731 116.952,247.360 115.754 C 243.975 112.796,241.675 111.937,238.768 112.547 C 233.432 113.667,232.085 117.591,235.723 121.414 C 236.944 122.698,236.746 122.753,234.619 121.723 C 227.671 118.358,231.731 109.869,240.289 109.869 C 242.489 109.869,244.475 110.403,246.109 111.434 L 247.114 112.068 247.545 111.555 C 247.783 111.273,248.263 110.906,248.612 110.741 L 249.247 110.439 248.400 109.187 C 246.086 105.764,245.135 102.586,245.137 98.283 C 245.138 96.543,245.223 95.121,245.342 94.849 C 245.528 94.424,245.546 94.456,245.557 95.233 C 245.596 98.093,247.776 104.444,248.935 105.076 C 251.098 106.256,257.187 105.071,259.349 103.049 C 260.304 102.156,260.406 102.254,259.940 103.623 C 259.036 106.274,255.731 107.894,251.836 107.594 C 251.043 107.533,250.394 107.531,250.394 107.590 C 250.394 108.265,256.869 114.710,257.547 114.710 C 257.711 114.710,257.959 114.400,258.873 113.050 C 260.106 111.229,260.969 108.498,261.251 105.522 C 261.642 101.411,262.128 99.522,263.610 96.348 C 265.010 93.350,266.352 89.207,266.356 87.868 C 266.359 87.090,264.219 87.688,258.888 89.958 C 251.957 92.908,250.294 92.718,249.753 88.915 L 249.635 88.086 250.063 88.489 C 251.683 90.010,252.919 89.817,258.376 87.188 C 262.098 85.394,263.390 84.974,265.160 84.981 L 266.543 84.986 266.543 84.358 C 266.543 78.558,261.713 76.244,255.128 78.890 C 249.536 81.138,247.532 80.990,237.401 77.590 C 226.165 73.818,221.273 73.003,215.777 73.989 M224.180 84.622 C 226.856 85.212,229.114 86.037,231.740 87.383 C 236.739 89.945,237.728 90.353,239.363 90.526 C 241.065 90.705,241.991 89.802,242.340 87.621 L 242.469 86.812 242.842 87.536 C 243.825 89.445,243.315 91.888,241.763 92.698 C 239.938 93.651,237.786 93.190,232.297 90.672 C 222.570 86.208,214.443 86.089,208.863 90.326 C 207.492 91.367,208.870 88.518,210.480 86.983 C 213.300 84.293,218.568 83.385,224.180 84.622 M226.236 90.932 C 228.439 91.670,230.289 92.804,231.842 94.367 C 233.346 95.881,233.359 95.783,231.388 97.729 C 225.655 103.389,215.844 101.384,214.347 94.245 C 213.695 91.139,220.878 89.137,226.236 90.932 M259.262 92.259 C 261.694 93.098,262.630 94.267,262.203 95.934 C 260.572 102.300,253.586 104.091,248.919 99.339 C 247.112 97.500,247.008 97.138,247.933 95.913 C 250.476 92.544,255.445 90.942,259.262 92.259 M218.995 92.607 C 216.983 93.393,216.679 93.923,217.346 95.478 C 219.058 99.471,225.019 100.431,229.110 97.371 C 231.058 95.914,230.988 95.415,228.645 94.025 L 228.148 93.731 227.855 94.739 C 226.565 99.178,220.078 98.077,220.105 93.424 C 220.108 92.779,220.055 92.254,219.986 92.259 C 219.917 92.264,219.471 92.420,218.995 92.607 M221.624 92.993 C 221.163 93.454,221.155 93.775,221.592 94.171 C 222.034 94.570,222.421 94.560,222.802 94.139 C 223.593 93.264,222.457 92.160,221.624 92.993 M258.323 94.645 C 258.859 98.644,253.005 100.257,251.217 96.602 L 250.712 95.571 250.089 96.175 C 249.260 96.978,249.299 97.240,250.400 98.271 C 253.947 101.588,259.035 100.374,260.023 95.975 C 260.186 95.249,260.166 95.189,259.610 94.775 C 258.374 93.853,258.214 93.837,258.323 94.645 M252.816 94.561 C 252.288 95.197,253.016 96.272,253.689 95.850 C 254.351 95.435,254.113 94.292,253.364 94.292 C 253.185 94.292,252.938 94.413,252.816 94.561 M224.480 95.302 C 224.282 95.818,224.493 96.241,224.948 96.241 C 225.533 96.241,225.865 95.726,225.535 95.329 C 225.230 94.962,224.616 94.946,224.480 95.302 M255.350 96.770 C 255.293 96.919,255.361 97.195,255.501 97.383 C 255.812 97.802,256.427 97.524,256.427 96.964 C 256.427 96.525,255.507 96.360,255.350 96.770 M212.795 101.145 C 214.809 105.086,219.865 106.942,224.567 105.464 C 226.227 104.943,226.325 105.001,225.299 105.893 C 220.502 110.064,213.025 108.073,211.707 102.275 C 211.177 99.944,211.397 97.313,211.969 99.141 C 212.141 99.690,212.513 100.592,212.795 101.145 M242.356 116.199 C 243.709 116.865,245.756 118.750,246.837 120.325 L 247.442 121.206 246.737 121.205 C 240.899 121.192,236.363 118.594,238.169 116.297 C 238.988 115.257,240.377 115.224,242.356 116.199 M254.129 116.544 C 255.483 117.898,254.947 119.623,252.921 120.430 C 251.649 120.937,251.699 120.965,251.566 119.668 C 251.248 116.595,252.569 114.985,254.129 116.544 M26.176 215.982 C 22.459 216.981,21.162 218.945,20.037 225.279 C 19.310 229.372,18.927 231.536,16.894 243.063 C 16.371 246.023,15.781 249.364,15.583 250.487 C 15.385 251.610,14.941 254.137,14.597 256.102 L 13.971 259.675 18.937 259.675 L 23.904 259.675 24.184 258.144 C 24.338 257.302,25.036 253.334,25.735 249.328 L 27.007 242.043 32.962 242.042 L 38.917 242.042 39.619 238.190 C 40.005 236.072,40.364 234.109,40.416 233.828 L 40.510 233.318 34.527 233.318 L 28.544 233.318 28.641 232.900 C 28.694 232.671,29.048 230.729,29.428 228.585 C 29.808 226.441,30.212 224.625,30.326 224.550 C 30.440 224.475,33.797 224.413,37.785 224.411 L 45.036 224.408 45.732 220.464 C 46.115 218.295,46.474 216.332,46.529 216.102 L 46.630 215.684 36.911 215.697 C 28.969 215.707,27.007 215.759,26.176 215.982 M59.582 215.838 C 59.582 215.976,57.619 227.147,56.053 235.916 C 55.734 237.703,55.361 239.833,55.223 240.650 C 55.085 241.466,54.582 244.306,54.104 246.961 C 52.823 254.081,52.790 254.376,53.147 255.603 C 53.729 257.605,55.029 258.860,57.069 259.389 C 58.852 259.850,76.594 259.816,76.727 259.350 C 76.778 259.172,77.122 257.313,77.492 255.220 C 77.862 253.128,78.207 251.269,78.259 251.090 C 78.349 250.785,77.910 250.766,70.855 250.766 L 63.355 250.766 63.870 247.842 C 64.153 246.234,64.594 243.749,64.850 242.320 C 65.106 240.891,65.653 237.821,66.066 235.498 C 66.479 233.176,67.155 229.375,67.569 227.053 C 67.982 224.731,68.571 221.369,68.879 219.582 C 69.186 217.796,69.481 216.188,69.534 216.009 C 69.624 215.706,69.304 215.684,64.606 215.684 C 61.843 215.684,59.582 215.754,59.582 215.838 M102.088 215.937 C 98.948 216.792,96.886 219.201,96.266 222.738 C 95.463 227.317,90.857 253.331,90.386 255.942 C 90.084 257.615,89.838 259.139,89.838 259.329 C 89.838 259.658,90.081 259.675,94.741 259.675 L 99.644 259.675 99.827 258.794 C 99.927 258.309,100.408 255.677,100.896 252.947 L 101.783 247.981 105.736 247.981 L 109.689 247.981 109.588 248.585 C 109.533 248.916,109.412 249.564,109.320 250.023 C 109.186 250.690,108.376 255.274,107.719 259.075 L 107.614 259.681 112.595 259.632 L 117.576 259.582 117.799 258.283 C 117.922 257.568,118.401 254.854,118.865 252.251 C 119.817 246.901,124.136 222.525,124.833 218.566 C 125.084 217.140,125.290 215.908,125.290 215.828 C 125.290 215.574,103.038 215.678,102.088 215.937 M143.038 215.887 C 139.221 216.802,137.776 219.008,136.601 225.708 C 135.101 234.264,135.443 234.843,145.151 240.187 C 152.147 244.038,151.426 243.115,150.674 247.254 L 150.052 250.673 146.107 250.723 L 142.163 250.773 142.274 250.166 C 142.335 249.832,142.533 248.682,142.715 247.610 L 143.045 245.661 138.130 245.612 C 135.427 245.585,133.192 245.586,133.162 245.616 C 133.133 245.646,132.804 247.338,132.432 249.378 C 131.286 255.662,131.695 257.429,134.647 258.932 L 135.925 259.582 143.925 259.639 C 154.288 259.712,155.129 259.567,157.376 257.315 C 159.031 255.656,159.268 254.979,160.352 248.795 C 162.159 238.486,161.996 238.165,152.204 232.777 C 145.299 228.976,145.856 229.559,146.368 226.665 C 146.800 224.223,146.433 224.408,150.835 224.408 C 153.743 224.408,154.615 224.462,154.606 224.640 C 154.600 224.768,154.406 225.958,154.175 227.285 L 153.755 229.698 158.669 229.748 C 161.371 229.775,163.607 229.773,163.637 229.742 C 163.974 229.405,165.188 221.102,165.027 220.233 C 164.671 218.306,163.651 216.994,161.866 216.168 C 160.934 215.737,144.677 215.495,143.038 215.887 M179.220 215.916 C 179.180 216.044,178.885 217.652,178.563 219.490 C 177.103 227.833,176.487 231.328,175.685 235.824 C 175.212 238.478,174.502 242.487,174.108 244.733 C 173.713 246.979,172.967 251.209,172.449 254.133 C 171.932 257.057,171.508 259.501,171.508 259.565 C 171.508 259.629,173.742 259.659,176.471 259.632 L 181.435 259.582 182.961 250.951 C 183.800 246.204,184.490 242.258,184.494 242.181 C 184.498 242.104,186.287 242.042,188.469 242.042 L 192.438 242.042 192.282 242.831 C 192.197 243.265,191.660 246.334,191.090 249.652 C 190.519 252.970,189.889 256.545,189.690 257.596 C 189.490 258.648,189.327 259.546,189.327 259.592 C 189.327 259.638,191.582 259.675,194.339 259.675 C 197.626 259.675,199.350 259.610,199.350 259.486 C 199.350 259.289,199.448 258.734,201.948 244.640 C 205.671 223.653,206.961 216.286,206.961 215.996 C 206.961 215.712,206.524 215.684,202.050 215.684 L 197.140 215.684 197.008 216.381 C 196.936 216.763,196.237 220.710,195.456 225.151 L 194.035 233.225 190.103 233.275 C 187.022 233.314,186.172 233.274,186.173 233.090 C 186.174 232.960,186.791 229.346,187.546 225.058 C 188.300 220.770,188.975 216.907,189.046 216.473 L 189.174 215.684 184.233 215.684 C 180.443 215.684,179.275 215.738,179.220 215.916 M220.051 216.097 C 219.997 216.329,219.741 217.731,219.482 219.211 C 219.224 220.691,218.886 222.613,218.732 223.480 C 218.044 227.357,217.311 231.497,217.057 232.947 C 216.725 234.836,216.377 236.801,214.312 248.445 C 213.443 253.346,212.645 257.805,212.538 258.355 C 212.431 258.905,212.343 259.427,212.343 259.515 C 212.343 259.735,233.514 259.717,234.862 259.496 C 237.728 259.027,240.222 256.884,241.031 254.198 C 241.506 252.620,243.375 241.396,243.376 240.121 C 243.376 239.077,243.275 238.645,242.812 237.710 L 242.247 236.571 243.049 235.769 C 244.665 234.153,244.810 233.691,246.116 226.027 C 247.254 219.349,246.829 217.647,243.671 216.220 L 242.691 215.777 231.420 215.725 L 220.149 215.673 220.051 216.097 M260.810 216.652 C 260.628 217.577,260.283 219.522,258.562 229.327 C 258.168 231.573,257.458 235.582,256.985 238.237 C 256.108 243.156,255.213 248.232,254.024 255.035 C 253.659 257.128,253.317 259.028,253.266 259.258 L 253.172 259.675 258.187 259.675 C 261.311 259.675,263.202 259.607,263.202 259.495 C 263.202 259.395,263.413 258.122,263.671 256.664 C 263.929 255.206,264.473 252.093,264.881 249.745 C 265.288 247.397,265.664 245.288,265.715 245.058 C 265.846 244.466,273.596 244.387,273.596 244.977 C 273.596 245.163,273.215 247.481,272.750 250.128 C 272.284 252.776,271.742 255.861,271.545 256.984 C 271.347 258.107,271.185 259.172,271.185 259.350 C 271.183 259.652,271.540 259.675,276.087 259.675 L 280.991 259.675 281.094 259.165 C 281.151 258.884,281.537 256.733,281.952 254.385 C 282.368 252.037,282.920 248.953,283.180 247.532 C 283.822 244.022,283.798 242.645,283.068 241.226 L 282.505 240.132 283.325 239.255 C 284.954 237.514,284.959 237.497,286.694 227.657 C 288.190 219.167,287.980 218.048,284.548 216.222 L 283.712 215.777 272.358 215.724 L 261.004 215.671 260.810 216.652 M301.809 215.824 C 301.809 215.900,301.690 216.631,301.544 217.448 C 299.985 226.170,299.366 229.666,297.456 240.557 C 297.088 242.650,296.669 244.988,296.524 245.754 C 296.378 246.520,296.047 248.357,295.787 249.838 C 295.528 251.318,295.065 253.939,294.758 255.663 C 294.451 257.387,294.200 258.995,294.200 259.236 L 294.200 259.675 299.098 259.675 L 303.997 259.675 304.190 258.608 C 304.295 258.021,305.144 253.239,306.077 247.981 C 307.009 242.724,308.484 234.413,309.354 229.513 C 310.223 224.613,311.121 219.497,311.348 218.144 L 311.760 215.684 306.785 215.684 C 304.049 215.684,301.810 215.747,301.809 215.824 M329.051 216.045 C 326.040 217.007,324.213 219.209,323.605 222.609 C 323.359 223.981,322.564 228.478,320.088 242.506 C 319.638 245.058,319.017 248.566,318.709 250.302 C 317.908 254.807,318.023 256.032,319.394 257.634 C 321.076 259.599,321.571 259.675,332.709 259.675 L 341.873 259.675 341.979 259.165 C 342.295 257.647,343.387 251.393,343.387 251.104 C 343.387 250.782,343.024 250.766,335.950 250.766 C 328.957 250.766,328.519 250.746,328.602 250.441 C 328.651 250.262,329.009 248.299,329.398 246.079 L 330.104 242.042 336.072 242.042 L 342.040 242.042 342.143 241.439 C 342.369 240.111,343.383 234.486,343.497 233.921 L 343.619 233.318 337.648 233.318 L 331.677 233.318 331.788 232.715 C 331.848 232.383,332.207 230.399,332.585 228.306 L 333.271 224.501 340.710 224.453 L 348.148 224.404 348.366 223.061 C 348.680 221.129,349.488 216.593,349.605 216.102 L 349.705 215.684 339.911 215.694 C 330.938 215.704,330.027 215.733,329.051 216.045 M367.151 215.982 C 365.086 216.537,363.312 217.989,362.336 219.923 C 361.757 221.070,361.655 221.587,358.789 237.865 C 358.394 240.111,357.693 244.079,357.232 246.682 C 355.343 257.342,355.083 258.858,355.082 259.258 L 355.081 259.675 359.974 259.675 L 364.867 259.675 365.267 257.494 C 365.486 256.295,366.187 252.348,366.824 248.724 L 367.981 242.135 373.968 242.086 C 377.260 242.059,379.954 241.973,379.954 241.895 C 379.954 241.817,380.288 239.920,380.696 237.680 C 381.104 235.440,381.439 233.542,381.439 233.462 C 381.439 233.383,378.757 233.318,375.479 233.318 L 369.519 233.318 369.622 232.900 C 369.678 232.671,370.031 230.729,370.406 228.585 C 370.781 226.441,371.183 224.625,371.298 224.550 C 371.414 224.475,374.770 224.413,378.757 224.411 L 386.005 224.408 386.708 220.371 C 387.095 218.151,387.451 216.188,387.500 216.009 C 387.624 215.555,368.834 215.530,367.151 215.982 M45.243 217.030 C 45.195 217.158,44.916 218.619,44.624 220.278 L 44.092 223.295 37.279 223.295 C 30.232 223.295,29.730 223.344,29.257 224.075 C 29.060 224.381,27.285 233.631,27.285 234.354 C 27.285 234.397,29.964 234.432,33.238 234.432 C 38.816 234.432,39.184 234.452,39.101 234.756 C 39.052 234.935,38.779 236.397,38.495 238.005 L 37.979 240.928 32.012 240.928 L 26.044 240.928 25.658 243.202 C 25.317 245.214,23.751 254.088,23.186 257.216 L 22.977 258.376 19.191 258.376 C 16.287 258.376,15.406 258.322,15.407 258.144 C 15.407 257.851,16.127 253.724,19.397 235.267 C 19.741 233.327,20.322 230.028,20.689 227.935 C 21.675 222.309,21.907 221.233,22.303 220.456 C 23.108 218.873,24.786 217.522,26.530 217.052 C 27.766 216.719,45.367 216.698,45.243 217.030 M68.195 217.123 C 68.153 217.302,67.616 220.288,67.002 223.759 C 63.553 243.237,62.268 250.435,62.073 251.369 L 61.966 251.879 69.405 251.879 L 76.845 251.879 76.835 252.297 C 76.830 252.527,76.593 253.968,76.310 255.499 L 75.794 258.283 66.467 258.331 C 58.019 258.375,57.077 258.350,56.477 258.065 C 55.389 257.549,54.613 256.629,54.270 255.451 C 53.915 254.235,53.842 254.857,55.336 246.404 C 55.841 243.545,56.666 238.868,57.169 236.009 C 57.672 233.151,58.629 227.737,59.297 223.979 C 59.964 220.221,60.510 217.068,60.510 216.972 C 60.510 216.869,62.096 216.798,64.391 216.798 C 67.992 216.798,68.266 216.822,68.195 217.123 M123.914 217.309 C 123.855 217.589,123.425 219.991,122.958 222.645 C 120.988 233.838,120.594 236.064,119.069 244.640 C 118.189 249.592,117.287 254.687,117.064 255.963 L 116.659 258.283 112.792 258.333 L 108.925 258.383 109.032 257.869 C 109.194 257.087,110.998 247.092,110.998 246.972 C 110.998 246.915,108.701 246.868,105.893 246.868 C 103.086 246.868,100.789 246.930,100.789 247.007 C 100.789 247.167,98.975 257.327,98.834 257.958 C 98.739 258.381,91.134 258.656,91.138 258.237 C 91.139 258.083,91.404 256.561,92.790 248.724 C 93.304 245.814,94.144 241.053,94.657 238.144 C 97.944 219.486,97.691 220.595,99.018 219.071 C 100.942 216.862,101.176 216.826,113.565 216.811 L 124.020 216.798 123.914 217.309 M161.040 217.072 C 163.789 217.888,164.311 219.742,163.341 225.244 C 163.035 226.979,162.784 228.462,162.784 228.538 C 162.784 228.615,161.046 228.677,158.920 228.677 L 155.057 228.677 155.435 226.337 L 155.813 223.996 155.368 223.636 C 154.684 223.082,146.658 223.188,146.091 223.759 C 145.607 224.246,144.690 228.791,144.943 229.447 C 145.231 230.195,145.824 230.578,151.627 233.769 C 161.005 238.925,160.929 238.779,159.255 248.451 C 158.056 255.375,157.508 256.509,154.710 257.844 L 153.596 258.376 144.820 258.376 C 135.251 258.376,135.273 258.378,134.136 257.299 C 132.687 255.923,132.581 254.998,133.364 250.556 C 133.721 248.529,134.014 246.828,134.014 246.776 C 134.014 246.724,135.737 246.682,137.843 246.682 L 141.673 246.682 141.574 247.378 C 141.519 247.761,141.367 248.798,141.236 249.684 C 140.889 252.023,140.584 251.879,145.916 251.879 C 150.082 251.879,150.370 251.857,150.715 251.513 C 151.141 251.086,151.102 251.240,151.846 247.101 C 152.649 242.634,153.186 243.334,145.893 239.341 C 136.503 234.200,136.335 233.923,137.722 225.829 C 138.788 219.608,139.810 217.937,143.087 217.054 C 144.437 216.690,159.806 216.705,161.040 217.072 M187.842 216.849 C 187.842 216.877,187.628 218.109,187.367 219.587 C 185.796 228.456,184.875 233.823,184.874 234.110 C 184.872 234.416,185.200 234.434,189.918 234.388 L 194.963 234.339 195.855 229.234 C 196.858 223.497,197.823 218.076,197.978 217.309 L 198.081 216.798 201.871 216.798 C 205.038 216.798,205.661 216.842,205.661 217.064 C 205.661 217.211,205.457 218.443,205.207 219.802 C 204.750 222.293,204.011 226.451,202.691 233.968 C 202.296 236.213,201.586 240.223,201.113 242.877 C 200.265 247.634,198.967 254.952,198.571 257.216 L 198.367 258.376 194.533 258.376 L 190.699 258.376 191.862 251.740 C 192.502 248.090,193.155 244.353,193.313 243.434 C 193.472 242.515,193.644 241.575,193.695 241.346 L 193.789 240.928 188.696 240.928 L 183.603 240.928 183.495 241.439 C 183.386 241.954,181.658 251.680,180.914 255.963 L 180.510 258.283 176.659 258.333 C 174.541 258.361,172.807 258.351,172.807 258.312 C 172.807 258.273,172.893 257.791,172.998 257.241 C 173.230 256.025,174.218 250.484,176.073 240.000 C 176.840 235.661,177.579 231.485,177.715 230.719 C 177.851 229.954,178.437 226.613,179.018 223.295 C 179.599 219.977,180.107 217.158,180.147 217.030 C 180.211 216.828,187.842 216.649,187.842 216.849 M242.648 217.054 C 245.835 218.013,246.133 219.455,244.764 227.285 C 243.665 233.578,242.807 235.414,240.531 236.347 C 240.348 236.421,240.417 236.558,240.779 236.841 C 242.575 238.244,242.606 238.993,241.209 247.053 C 239.745 255.503,239.329 256.469,236.566 257.827 L 235.638 258.283 224.666 258.334 L 213.693 258.384 214.398 254.343 C 214.786 252.120,215.490 248.130,215.964 245.476 C 216.437 242.821,217.152 238.791,217.554 236.520 C 219.437 225.855,219.779 223.915,220.312 220.882 C 220.626 219.095,220.926 217.445,220.978 217.216 L 221.074 216.798 231.436 216.798 C 239.712 216.798,241.968 216.850,242.648 217.054 M283.506 217.061 C 286.714 218.026,286.992 219.312,285.652 226.953 C 285.136 229.892,284.591 233.007,284.440 233.875 C 283.920 236.871,283.194 238.248,281.554 239.349 C 281.108 239.648,280.707 239.918,280.663 239.949 C 280.619 239.979,280.862 240.275,281.201 240.605 C 282.557 241.924,282.761 243.259,282.146 246.775 C 281.950 247.898,281.447 250.780,281.030 253.179 C 280.613 255.578,280.230 257.729,280.179 257.958 C 280.086 258.375,280.075 258.376,276.284 258.376 C 272.043 258.376,272.350 258.497,272.662 256.946 C 272.760 256.457,273.141 254.343,273.507 252.251 C 273.874 250.158,274.336 247.585,274.535 246.534 C 275.138 243.336,275.456 243.527,269.516 243.527 L 264.879 243.527 264.790 243.944 C 264.517 245.212,262.274 257.964,262.274 258.245 C 262.274 258.317,260.536 258.376,258.412 258.376 L 254.549 258.376 254.966 256.009 C 255.196 254.708,255.725 251.722,256.143 249.374 C 256.561 247.026,257.323 242.724,257.837 239.814 C 258.352 236.905,259.053 232.937,259.397 230.998 C 259.741 229.058,260.404 225.299,260.870 222.645 C 261.337 219.991,261.767 217.589,261.826 217.309 L 261.932 216.798 272.282 216.798 C 280.674 216.798,282.798 216.848,283.506 217.061 M310.297 217.587 C 310.243 218.021,309.268 223.596,308.132 229.977 C 306.996 236.357,305.948 242.246,305.804 243.063 C 305.660 243.879,305.333 245.717,305.079 247.146 C 304.149 252.361,303.109 258.262,303.109 258.318 C 303.109 258.350,301.397 258.376,299.304 258.376 C 296.077 258.376,295.499 258.334,295.499 258.103 C 295.499 257.952,295.704 256.678,295.954 255.272 C 296.773 250.663,299.555 234.977,300.225 231.183 C 301.439 224.313,301.833 222.100,302.286 219.599 C 302.535 218.229,302.738 217.039,302.738 216.954 C 302.738 216.868,304.461 216.798,306.567 216.798 L 310.396 216.798 310.297 217.587 M348.082 218.237 C 347.932 219.028,347.670 220.469,347.501 221.439 L 347.193 223.202 339.722 223.250 C 335.163 223.280,332.251 223.368,332.251 223.475 C 332.251 223.572,331.868 225.805,331.401 228.438 C 330.934 231.071,330.506 233.497,330.449 233.828 L 330.346 234.432 336.305 234.432 L 342.265 234.432 342.173 234.942 C 342.122 235.223,341.922 236.288,341.728 237.309 C 341.535 238.329,341.318 239.561,341.247 240.046 L 341.118 240.928 335.107 240.928 C 331.800 240.928,329.095 240.991,329.094 241.067 C 329.093 241.223,328.665 243.695,327.809 248.488 C 327.496 250.247,327.239 251.729,327.239 251.783 C 327.239 251.836,330.580 251.879,334.664 251.879 C 340.894 251.879,342.088 251.921,342.088 252.138 C 342.088 252.367,341.723 254.390,341.136 257.406 L 340.946 258.386 331.417 258.334 L 321.888 258.283 321.083 257.725 C 319.359 256.530,319.010 255.071,319.617 251.601 C 319.814 250.478,320.402 247.137,320.925 244.176 C 322.277 236.518,322.301 236.381,323.328 230.534 C 324.853 221.849,324.956 221.348,325.371 220.533 C 327.150 217.046,327.981 216.826,339.421 216.810 L 348.354 216.798 348.082 218.237 M386.199 217.123 C 386.149 217.302,385.965 218.241,385.789 219.211 C 385.614 220.181,385.374 221.476,385.256 222.088 L 385.042 223.202 377.978 223.295 C 370.581 223.392,370.559 223.394,370.119 224.217 C 369.992 224.455,368.260 233.866,368.260 234.320 C 368.260 234.381,370.942 234.432,374.220 234.432 L 380.179 234.432 380.078 234.849 C 380.023 235.079,379.749 236.541,379.470 238.097 L 378.962 240.928 372.991 240.928 L 367.019 240.928 366.616 243.295 C 366.394 244.596,366.052 246.580,365.854 247.703 C 365.657 248.826,365.197 251.457,364.832 253.550 C 364.467 255.643,364.121 257.585,364.065 257.865 L 363.961 258.376 360.171 258.376 C 357.184 258.376,356.381 258.325,356.381 258.134 C 356.381 258.002,357.472 251.716,358.806 244.167 C 360.139 236.618,361.552 228.603,361.945 226.357 C 362.337 224.111,362.720 222.023,362.794 221.717 C 363.309 219.601,365.276 217.653,367.504 217.052 C 369.029 216.641,386.315 216.706,386.199 217.123 M105.672 223.482 C 105.032 223.740,104.754 224.368,104.444 226.265 C 104.285 227.234,103.893 229.490,103.572 231.276 C 103.252 233.063,102.757 235.840,102.472 237.448 L 101.954 240.371 107.029 240.371 L 112.104 240.371 112.201 239.954 C 112.254 239.724,112.626 237.698,113.028 235.452 C 113.430 233.206,114.056 229.715,114.420 227.694 C 114.784 225.673,115.081 223.856,115.081 223.657 C 115.081 223.261,106.612 223.103,105.672 223.482 M227.564 223.432 C 227.564 223.570,225.948 232.573,225.814 233.179 C 225.747 233.481,226.063 233.503,230.448 233.503 C 236.409 233.503,235.898 233.817,236.655 229.698 C 236.955 228.065,237.287 226.279,237.394 225.729 C 237.871 223.260,237.944 223.295,232.204 223.295 C 229.652 223.295,227.564 223.356,227.564 223.432 M268.399 223.484 C 268.399 223.589,268.142 225.113,267.828 226.872 C 267.515 228.631,266.983 231.636,266.647 233.550 L 266.036 237.030 270.664 237.030 C 276.779 237.030,276.051 237.682,277.207 231.178 C 277.678 228.526,278.145 225.956,278.243 225.467 C 278.683 223.280,278.719 223.295,273.039 223.295 C 270.004 223.295,268.399 223.360,268.399 223.484 M113.708 225.197 C 113.447 226.887,111.520 237.655,111.266 238.840 C 111.159 239.340,103.386 239.523,103.389 239.026 C 103.390 238.810,103.709 236.957,105.252 228.213 C 105.997 223.991,105.475 224.408,110.023 224.408 L 113.829 224.408 113.708 225.197 M236.380 225.012 C 236.319 225.343,235.994 227.118,235.658 228.956 L 235.048 232.297 231.120 232.347 C 227.916 232.388,227.193 232.351,227.193 232.146 C 227.193 232.007,227.485 230.280,227.842 228.306 C 228.200 226.333,228.492 224.648,228.492 224.563 C 228.492 224.478,230.291 224.408,232.491 224.408 L 236.490 224.408 236.380 225.012 M277.222 224.826 C 277.171 225.056,276.913 226.497,276.650 228.028 C 276.386 229.559,275.967 231.924,275.719 233.284 C 275.470 234.643,275.267 235.792,275.267 235.836 C 275.267 235.880,273.513 235.916,271.369 235.916 C 268.074 235.916,267.471 235.875,267.471 235.645 C 267.471 235.187,269.236 225.267,269.430 224.640 C 269.484 224.464,270.444 224.408,273.408 224.408 L 277.316 224.408 277.222 224.826 M224.521 240.510 C 224.255 241.841,222.552 251.495,222.552 251.675 C 222.552 252.068,231.892 251.948,232.386 251.549 C 232.836 251.184,232.794 251.363,233.880 245.197 C 234.746 240.285,234.705 240.830,234.246 240.371 C 233.895 240.020,233.627 240.000,229.249 240.000 L 224.623 240.000 224.521 240.510 M232.830 244.687 C 232.495 246.652,232.112 248.803,231.980 249.466 L 231.740 250.673 227.796 250.723 C 225.626 250.751,223.852 250.734,223.852 250.686 C 223.852 250.639,224.227 248.531,224.687 246.002 C 225.146 243.473,225.522 241.339,225.522 241.259 C 225.522 241.179,227.304 241.114,229.482 241.114 L 233.441 241.114 232.830 244.687 " stroke="none" fill="#f6ebd1" fill-rule="evenodd"></path><path id="path3" d="M196.566 18.671 C 189.030 19.176,183.874 20.102,178.005 22.003 C 176.320 22.548,174.004 23.169,172.858 23.382 C 166.766 24.512,160.173 28.220,155.626 33.073 C 154.984 33.759,153.789 34.712,152.761 35.360 C 135.182 46.434,128.886 70.211,138.583 88.910 C 139.847 91.348,140.222 93.864,139.656 96.111 C 136.350 109.222,143.745 126.032,152.818 126.032 C 153.307 126.032,154.688 127.896,154.296 128.026 C 152.416 128.653,148.633 131.699,146.916 133.968 C 145.827 135.407,143.852 138.972,143.852 139.498 C 143.852 139.606,143.246 139.890,142.506 140.128 C 124.506 145.915,120.004 163.841,133.550 175.785 C 140.698 182.087,148.892 184.804,188.121 193.882 C 219.091 201.048,231.139 205.096,237.608 210.506 L 238.465 211.223 240.857 209.245 C 255.450 197.179,268.043 182.948,272.847 173.093 C 278.688 161.111,275.965 151.419,265.229 145.979 L 264.347 145.532 264.703 144.597 C 265.411 142.732,264.987 140.837,263.640 139.849 C 263.246 139.561,262.859 139.272,262.780 139.208 C 262.701 139.144,262.837 138.637,263.082 138.083 C 266.002 131.482,264.731 122.693,260.067 117.229 L 259.128 116.129 259.747 115.373 C 262.326 112.223,263.449 109.334,263.934 104.594 C 264.225 101.746,264.698 100.060,265.986 97.277 C 269.354 90.000,270.004 84.196,267.959 79.645 C 267.612 78.870,267.098 77.610,266.817 76.845 C 266.537 76.079,265.946 74.746,265.504 73.883 C 265.062 73.020,264.718 72.304,264.740 72.292 C 265.170 72.050,267.587 70.094,268.832 68.980 C 281.760 57.415,280.750 43.488,266.396 35.374 C 257.219 30.187,246.669 28.570,237.127 30.888 L 235.274 31.338 233.755 29.879 C 225.748 22.193,210.878 17.711,196.566 18.671 M207.889 21.616 C 217.677 22.875,225.464 25.969,231.065 30.822 L 232.617 32.167 231.143 32.762 C 221.559 36.628,211.771 44.730,204.481 54.830 C 197.409 64.631,194.692 67.120,188.986 69.029 C 184.903 70.396,178.664 70.783,175.216 69.884 C 171.520 68.921,165.674 69.044,161.742 70.169 C 160.138 70.627,160.277 71.123,160.285 64.996 C 160.301 51.808,163.777 38.558,169.668 29.231 L 170.444 28.001 173.064 26.726 C 179.132 23.774,186.430 21.975,195.174 21.276 C 197.298 21.106,205.664 21.330,207.889 21.616 M167.057 28.631 C 157.714 44.227,155.100 67.606,160.577 86.589 C 160.783 87.304,160.993 88.032,161.044 88.208 C 161.125 88.493,161.041 88.485,160.243 88.129 C 157.205 86.773,153.695 88.009,151.555 91.188 C 151.219 91.686,150.905 92.025,150.857 91.940 C 150.650 91.580,149.014 85.457,148.509 83.155 C 146.062 72.005,145.397 60.525,146.819 53.983 C 149.048 43.736,156.806 33.314,165.799 28.486 C 167.730 27.449,167.763 27.453,167.057 28.631 M250.042 32.570 C 254.624 33.106,258.660 34.338,263.202 36.587 C 279.067 44.444,279.538 57.578,264.380 69.450 L 263.275 70.315 262.357 69.192 C 260.485 66.904,256.265 63.643,253.138 62.068 L 251.851 61.420 252.932 60.716 C 254.709 59.561,257.308 56.356,256.207 56.679 C 254.339 57.227,251.204 57.316,249.271 56.876 C 247.760 56.533,247.764 56.540,248.722 55.638 C 250.031 54.406,250.939 52.584,251.238 50.587 C 251.395 49.544,251.470 49.536,249.575 50.771 C 247.103 52.383,240.432 55.436,240.103 55.107 C 240.063 55.067,240.149 54.578,240.294 54.020 C 240.669 52.571,240.620 51.583,240.090 49.980 C 240.042 49.835,239.415 50.153,238.372 50.850 C 236.211 52.295,233.655 53.596,230.756 54.724 L 228.399 55.642 224.223 55.753 C 216.853 55.948,211.407 56.843,206.166 58.718 L 204.350 59.368 205.223 58.129 C 214.258 45.311,225.514 36.528,236.654 33.606 C 241.344 32.375,245.576 32.048,250.042 32.570 M148.126 43.480 C 143.551 52.232,142.514 60.641,144.334 74.243 L 144.619 76.375 143.910 76.925 C 141.922 78.468,140.257 81.001,139.722 83.295 C 139.406 84.650,139.327 84.567,138.495 81.995 C 134.632 70.052,136.779 56.664,144.145 46.766 C 145.253 45.278,149.107 41.021,149.346 41.021 C 149.382 41.021,148.833 42.128,148.126 43.480 M173.832 72.182 C 180.167 73.493,184.289 77.487,186.505 84.460 C 190.487 96.990,190.289 114.847,186.075 123.264 C 180.427 134.545,163.119 136.684,156.364 126.936 C 155.766 126.073,155.737 126.115,157.129 125.802 L 158.237 125.553 159.324 126.251 C 166.955 131.150,178.028 128.142,181.827 120.137 C 184.501 114.502,184.984 99.278,182.739 91.413 C 180.225 82.605,173.462 77.792,163.577 77.776 C 160.943 77.772,161.243 78.070,160.861 75.081 C 160.584 72.911,160.396 73.140,162.970 72.503 C 166.640 71.593,170.444 71.481,173.832 72.182 M224.812 73.980 C 227.786 74.458,230.783 75.302,237.309 77.499 C 247.541 80.944,249.524 81.094,255.107 78.851 C 258.521 77.480,259.732 77.317,261.954 77.934 C 264.794 78.721,266.544 81.091,266.543 84.149 L 266.542 85.104 265.011 85.104 C 263.091 85.104,262.339 85.350,258.190 87.331 C 253.114 89.754,251.665 90.000,250.255 88.679 L 249.838 88.288 249.839 88.831 C 249.846 92.533,252.052 92.810,258.741 89.951 C 262.577 88.312,264.231 87.729,265.655 87.516 L 266.505 87.388 266.234 88.845 C 265.848 90.914,264.863 93.761,263.588 96.489 C 262.242 99.370,261.825 100.959,261.352 105.001 C 260.843 109.357,260.103 111.525,258.272 114.020 L 257.621 114.908 256.467 114.027 C 254.547 112.562,250.209 107.986,250.209 107.425 C 250.209 107.385,250.773 107.421,251.462 107.505 C 255.809 108.037,259.409 106.063,260.137 102.749 L 260.257 102.204 259.545 102.935 C 257.536 104.999,252.430 106.175,249.357 105.280 C 248.058 104.903,245.970 99.851,245.632 96.269 C 245.483 94.690,245.281 95.005,245.114 97.077 C 244.797 101.031,246.113 105.756,248.518 109.297 L 249.286 110.428 248.683 110.741 C 248.351 110.912,247.857 111.290,247.586 111.580 L 247.093 112.108 246.036 111.472 C 241.009 108.445,233.957 109.961,231.657 114.564 C 230.109 117.661,231.869 120.799,235.963 122.244 L 236.696 122.502 235.651 121.374 C 232.129 117.569,233.249 113.902,238.341 112.569 C 241.152 111.833,243.761 112.677,246.961 115.355 L 248.631 116.753 248.856 115.322 C 249.304 112.465,250.512 112.045,252.606 114.020 C 253.299 114.673,254.528 115.712,255.337 116.328 C 259.011 119.125,261.108 122.601,261.915 127.230 C 262.666 131.544,261.064 138.840,259.365 138.840 C 259.018 138.840,257.546 139.043,256.095 139.292 C 244.834 141.223,230.989 139.829,220.510 135.707 L 219.490 135.306 220.139 135.872 C 226.897 141.767,240.835 144.196,255.128 141.969 C 260.551 141.123,261.136 141.116,262.177 141.877 C 263.432 142.794,261.671 145.692,259.099 146.942 C 256.618 148.149,255.084 148.399,250.162 148.399 C 247.738 148.399,245.754 148.425,245.754 148.456 C 245.754 149.416,252.645 150.463,255.904 149.998 C 257.058 149.834,257.030 150.016,255.715 151.228 C 244.381 161.676,222.381 159.123,214.116 146.402 C 206.987 135.427,210.597 118.366,220.552 115.989 C 222.691 115.477,224.604 114.662,226.381 113.504 C 228.064 112.407,228.333 112.121,227.239 112.592 C 211.141 119.518,193.955 105.332,198.232 88.648 C 200.881 78.311,212.352 71.980,224.812 73.980 M145.602 81.592 C 145.851 82.809,146.184 84.348,146.341 85.012 C 146.530 85.812,146.560 86.240,146.432 86.284 C 145.744 86.520,143.804 88.069,142.991 89.033 C 141.799 90.446,141.810 90.458,141.810 87.702 C 141.810 84.125,142.501 81.982,144.278 80.054 C 145.180 79.075,145.056 78.931,145.602 81.592 M167.727 80.659 C 178.078 82.464,182.638 91.494,181.570 108.073 C 180.718 121.284,177.080 126.458,168.631 126.475 C 165.978 126.481,165.176 126.366,161.995 125.528 C 159.814 124.954,159.819 125.019,161.874 124.011 C 163.854 123.040,163.891 122.928,162.034 123.517 C 153.074 126.362,145.375 121.689,142.462 111.639 C 139.894 102.775,142.077 91.456,146.830 88.998 C 147.334 88.737,147.340 88.741,147.468 89.423 C 147.539 89.801,148.031 91.448,148.560 93.083 L 149.524 96.056 149.282 97.262 C 147.434 106.483,152.575 118.131,158.945 119.158 C 167.479 120.533,171.652 105.296,165.851 93.943 C 164.611 91.517,161.856 82.321,161.856 80.608 L 161.856 80.131 164.020 80.260 C 165.210 80.332,166.878 80.511,167.727 80.659 M216.067 84.354 C 212.503 85.032,210.152 86.643,208.785 89.346 C 208.090 90.720,208.152 90.762,209.543 89.862 C 215.436 86.054,223.063 86.298,232.217 90.587 C 238.363 93.466,241.048 93.799,242.662 91.881 C 243.463 90.928,243.544 89.251,242.865 87.660 L 242.566 86.961 242.236 88.248 C 241.415 91.452,239.399 91.393,232.829 87.971 C 226.750 84.806,220.634 83.486,216.067 84.354 M219.861 90.406 C 217.757 90.731,215.225 91.888,214.374 92.913 C 213.796 93.610,215.135 96.881,216.596 98.342 C 220.582 102.327,228.479 101.581,232.205 96.867 C 233.131 95.696,233.139 95.775,231.972 94.531 C 229.068 91.437,224.113 89.749,219.861 90.406 M253.080 92.384 C 251.124 93.061,249.915 93.861,248.444 95.449 C 247.014 96.993,247.023 96.928,248.046 98.317 C 252.361 104.179,260.415 102.726,262.199 95.763 L 262.492 94.620 261.780 93.889 C 259.860 91.919,256.234 91.292,253.080 92.384 M220.232 93.611 C 220.232 97.124,224.175 98.831,226.793 96.452 C 227.318 95.974,227.935 94.818,227.935 94.311 C 227.935 93.549,228.842 93.896,230.209 95.181 C 230.897 95.828,230.861 95.992,229.844 96.888 C 225.370 100.826,218.387 99.589,217.019 94.616 C 216.800 93.818,217.203 93.380,218.845 92.635 C 220.185 92.027,220.232 92.060,220.232 93.611 M222.817 92.913 C 223.380 93.476,222.973 94.478,222.181 94.478 C 221.382 94.478,221.010 93.569,221.560 92.961 C 221.937 92.545,222.430 92.526,222.817 92.913 M259.907 94.983 C 260.206 95.314,260.210 95.414,259.951 96.283 C 258.591 100.864,253.047 101.592,249.712 97.628 L 249.228 97.053 249.942 96.322 C 250.796 95.448,250.873 95.434,251.013 96.133 C 251.240 97.266,252.649 98.443,254.049 98.667 C 256.361 99.036,258.761 96.652,258.280 94.462 L 258.155 93.896 258.869 94.260 C 259.261 94.460,259.728 94.785,259.907 94.983 M254.001 94.701 C 254.245 95.050,254.250 95.167,254.036 95.490 C 253.554 96.216,252.622 95.987,252.622 95.142 C 252.622 94.284,253.510 94.000,254.001 94.701 M158.857 95.012 C 159.058 95.140,159.031 95.315,158.716 95.932 C 156.777 99.733,157.709 106.294,160.641 109.486 L 161.383 110.295 160.868 110.738 C 157.086 113.991,152.446 104.067,154.804 97.765 C 155.661 95.474,157.555 94.188,158.857 95.012 M225.607 95.380 C 225.775 95.912,225.528 96.334,225.047 96.334 C 224.510 96.334,224.185 95.823,224.431 95.364 C 224.666 94.924,225.465 94.934,225.607 95.380 M256.297 96.557 C 256.847 97.107,256.273 97.920,255.624 97.510 C 255.202 97.244,255.165 96.973,255.504 96.634 C 255.862 96.276,256.002 96.262,256.297 96.557 M211.502 99.186 C 210.398 106.550,220.085 111.140,225.315 105.731 L 225.944 105.081 224.758 105.457 C 219.140 107.238,213.803 104.742,212.034 99.506 L 211.633 98.317 211.502 99.186 M239.191 115.639 C 236.815 116.369,237.710 118.985,240.742 120.172 C 241.999 120.664,244.122 121.021,245.792 121.021 L 247.283 121.021 246.764 120.325 C 244.205 116.897,241.183 115.027,239.191 115.639 M252.137 116.479 C 251.700 117.146,251.481 118.526,251.619 119.749 L 251.737 120.797 252.268 120.645 C 253.784 120.210,254.849 119.181,254.849 118.152 C 254.849 116.512,252.902 115.311,252.137 116.479 M157.895 131.779 C 160.478 133.868,163.425 135.114,166.793 135.539 L 168.503 135.755 169.008 137.901 C 170.624 144.773,172.465 147.893,177.248 151.865 C 179.421 153.671,179.323 153.694,179.184 151.408 C 179.112 150.231,179.151 149.002,179.286 148.206 C 179.647 146.085,179.672 146.060,180.163 147.365 C 181.350 150.524,183.550 154.040,186.645 157.726 C 188.561 160.008,188.396 159.981,188.924 158.097 C 189.160 157.255,189.683 155.862,190.086 155.002 L 190.819 153.438 191.640 154.770 C 194.585 159.547,198.179 162.400,204.525 164.999 C 207.147 166.072,207.040 166.044,206.877 165.619 C 206.664 165.062,206.225 161.622,206.231 160.557 C 206.238 159.539,206.238 159.537,206.553 159.997 C 209.620 164.487,213.390 168.124,220.925 173.864 C 230.002 180.777,233.661 183.981,236.653 187.634 C 238.333 189.686,237.978 189.720,239.762 187.332 C 243.966 181.704,249.281 171.788,249.281 169.572 C 249.281 169.541,247.803 169.961,245.996 170.506 C 244.189 171.051,242.680 171.466,242.643 171.429 C 242.493 171.278,245.419 168.993,248.398 166.935 C 254.979 162.387,257.740 158.500,260.011 150.588 C 260.517 148.822,260.555 148.758,261.335 148.325 L 262.138 147.880 263.366 148.485 C 275.224 154.332,275.946 164.651,265.524 179.289 C 260.095 186.914,250.151 197.379,240.775 205.335 L 238.488 207.276 237.053 206.315 C 229.724 201.410,217.218 197.459,186.821 190.446 C 161.518 184.608,148.922 181.117,143.051 178.315 C 125.412 169.897,123.665 152.446,139.675 144.593 C 140.900 143.992,142.117 143.449,142.378 143.386 L 142.854 143.272 142.684 144.815 C 142.007 150.984,144.968 158.050,149.920 162.084 C 156.337 167.310,164.343 170.356,188.052 176.594 C 213.963 183.410,223.464 187.102,230.805 193.203 L 232.283 194.432 231.658 193.522 C 226.086 185.402,216.328 180.695,192.131 174.457 C 164.453 167.322,156.296 164.186,150.719 158.538 C 142.508 150.221,144.736 136.305,155.121 131.046 C 155.712 130.747,156.218 130.499,156.247 130.495 C 156.275 130.491,157.017 131.068,157.895 131.779 M287.756 221.160 C 287.757 221.671,287.794 221.857,287.836 221.575 C 287.879 221.293,287.878 220.875,287.834 220.647 C 287.790 220.419,287.755 220.650,287.756 221.160 M34.002 224.547 C 36.011 224.577,39.352 224.577,41.426 224.547 C 43.500 224.517,41.856 224.493,37.773 224.493 C 33.689 224.493,31.992 224.517,34.002 224.547 M109.918 224.547 C 113.196 224.596,113.579 224.635,113.655 224.923 C 113.717 225.159,113.744 225.134,113.760 224.826 L 113.782 224.408 110.023 224.451 L 106.265 224.493 109.918 224.547 M146.943 224.548 C 146.896 224.624,148.595 224.687,150.719 224.687 C 152.844 224.687,154.543 224.624,154.496 224.548 C 154.448 224.471,152.749 224.408,150.719 224.408 C 148.690 224.408,146.990 224.471,146.943 224.548 M228.616 224.532 C 228.548 224.600,228.493 224.746,228.495 224.857 C 228.496 224.971,228.563 224.955,228.650 224.818 C 228.767 224.633,229.657 224.591,232.620 224.633 C 234.720 224.663,236.400 224.624,236.352 224.548 C 236.245 224.376,228.787 224.361,228.616 224.532 M269.391 224.695 C 269.331 224.852,269.333 225.033,269.397 225.097 C 269.461 225.161,269.513 225.075,269.513 224.907 C 269.513 224.635,269.934 224.596,273.364 224.547 L 277.216 224.493 273.358 224.451 C 270.027 224.414,269.486 224.447,269.391 224.695 M333.300 224.548 C 333.221 224.674,338.753 224.672,345.615 224.541 C 347.095 224.513,344.949 224.472,340.846 224.449 C 336.743 224.427,333.347 224.471,333.300 224.548 M374.976 224.547 C 376.985 224.577,380.327 224.577,382.401 224.547 C 384.475 224.517,382.831 224.493,378.747 224.493 C 374.664 224.493,372.967 224.517,374.976 224.547 M163.712 229.478 C 163.712 229.748,163.322 229.789,160.325 229.838 L 156.937 229.893 160.331 229.935 C 163.694 229.976,164.388 229.848,163.828 229.288 C 163.764 229.225,163.712 229.310,163.712 229.478 M227.987 232.341 C 228.475 232.379,229.227 232.379,229.658 232.340 C 230.088 232.301,229.689 232.269,228.770 232.270 C 227.852 232.271,227.499 232.302,227.987 232.341 M28.584 233.179 C 28.585 233.255,29.357 233.304,30.302 233.288 C 32.047 233.258,31.839 233.184,29.744 233.091 C 29.106 233.063,28.584 233.102,28.584 233.179 M331.693 233.179 C 331.694 233.255,332.425 233.305,333.318 233.290 C 335.016 233.261,334.826 233.180,332.853 233.091 C 332.215 233.063,331.693 233.102,331.693 233.179 M186.966 233.269 C 187.454 233.307,188.206 233.307,188.637 233.268 C 189.067 233.229,188.668 233.198,187.749 233.198 C 186.831 233.199,186.478 233.231,186.966 233.269 M370.348 233.269 C 370.833 233.307,371.626 233.307,372.111 233.269 C 372.596 233.230,372.200 233.199,371.230 233.199 C 370.260 233.199,369.863 233.230,370.348 233.269 M103.409 238.840 C 103.388 239.246,103.434 239.256,105.012 239.220 L 106.636 239.182 105.117 239.120 C 103.872 239.069,103.582 239.000,103.514 238.740 C 103.454 238.510,103.425 238.537,103.409 238.840 M225.522 241.253 C 225.522 241.329,226.712 241.371,228.167 241.344 C 232.996 241.257,233.457 241.188,229.466 241.151 C 227.297 241.130,225.522 241.176,225.522 241.253 M161.359 242.413 C 161.359 243.077,161.392 243.348,161.434 243.016 C 161.475 242.684,161.475 242.142,161.434 241.810 C 161.392 241.478,161.359 241.749,161.359 242.413 M135.545 245.522 C 136.949 245.553,139.246 245.553,140.650 245.522 C 142.053 245.490,140.905 245.464,138.097 245.464 C 135.290 245.464,134.142 245.490,135.545 245.522 M157.391 257.401 L 156.752 258.097 157.448 257.458 C 158.096 256.862,158.229 256.705,158.087 256.705 C 158.056 256.705,157.743 257.019,157.391 257.401 " stroke="none" fill="#5c6c54" fill-rule="evenodd"></path><path id="path4" d="M197.450 17.022 C 197.681 17.067,198.015 17.065,198.192 17.018 C 198.370 16.972,198.181 16.936,197.773 16.938 C 197.364 16.940,197.219 16.978,197.450 17.022 M201.905 17.022 C 202.136 17.067,202.470 17.065,202.647 17.018 C 202.825 16.972,202.636 16.936,202.227 16.938 C 201.819 16.940,201.674 16.978,201.905 17.022 M245.986 28.156 C 246.165 28.202,246.457 28.202,246.636 28.156 C 246.814 28.109,246.668 28.071,246.311 28.071 C 245.954 28.071,245.807 28.109,245.986 28.156 M154.701 31.601 L 153.968 32.390 154.756 31.656 C 155.490 30.974,155.631 30.812,155.490 30.812 C 155.460 30.812,155.105 31.167,154.701 31.601 M272.390 149.234 C 272.789 149.643,273.157 149.977,273.208 149.977 C 273.259 149.977,272.974 149.643,272.575 149.234 C 272.177 148.826,271.809 148.492,271.758 148.492 C 271.707 148.492,271.991 148.826,272.390 149.234 " stroke="none" fill="#664d2e" fill-rule="evenodd"></path></g></svg>